<svg width="299" height="299" viewBox="0 0 299 299" fill="none" xmlns="http://www.w3.org/2000/svg">
<g id="grafic_moveape">
<path id="Vector" d="M49.0458 149.502C49.0458 94.0242 94.0203 49.0474 149.501 49.0474C204.981 49.0474 248.405 92.4901 249.913 146.653C266.274 147.24 282.632 147.827 298.992 148.415C298.407 66.3521 231.704 0.00390625 149.498 0.00390625C67.2926 0.00390625 0 66.9371 0 149.502C0 213.238 39.886 267.657 96.0571 289.164C102.01 273.934 107.961 258.701 113.914 243.471C75.999 229.105 49.0458 192.452 49.0458 149.502Z" fill="#069C3E"/>
<g id="Group">
<path id="Vector_2" d="M197.352 161.994C195.415 159.963 192.729 158.636 189.507 158.096C189.507 157.905 189.5 157.711 189.493 157.52C189.486 157.357 189.476 157.198 189.462 157.035C189.895 156.644 190.162 156.093 190.196 155.504C190.273 154.187 190.169 152.87 189.884 151.585C189.794 151.183 189.69 150.784 189.566 150.392C189.978 150.33 190.387 150.254 190.796 150.171C192.022 149.918 193.239 149.561 194.413 149.114C195.301 148.778 195.879 147.918 195.858 146.972C195.838 146.026 195.224 145.191 194.323 144.893C193.571 144.644 192.819 144.363 192.085 144.055C192.504 143.76 192.913 143.452 193.312 143.129C195.332 141.49 197.03 139.512 198.357 137.253C198.849 136.414 198.745 135.357 198.1 134.629C197.667 134.141 197.054 133.877 196.427 133.877C196.122 133.877 195.817 133.94 195.526 134.068C194.417 134.553 193.27 134.966 192.106 135.298C192.667 133.929 193.086 132.509 193.343 131.071C194.372 125.319 192.681 120.564 191.582 118.243C191.205 117.442 190.404 116.961 189.559 116.961C189.34 116.961 189.119 116.992 188.9 117.061C188.325 117.238 187.864 117.633 187.594 118.128C187.497 117.917 187.396 117.706 187.289 117.494C184.614 112.161 180.397 109.379 178.124 108.197C177.794 108.027 177.441 107.944 177.091 107.944C176.398 107.944 175.722 108.266 175.289 108.852C175.064 109.16 174.925 109.507 174.873 109.864C171.19 106.083 166.997 102.906 162.374 100.39C152.669 95.123 143.281 94.0142 137.113 94.0142C135.54 94.0142 134.022 94.0835 132.474 94.2221C131.32 94.326 130.436 95.2928 130.436 96.4502C130.436 97.6075 131.316 98.5743 132.47 98.6817C132.744 98.706 133.014 98.7337 133.284 98.7649C127.657 99.0941 122.05 100.556 116.939 103.044C115.941 103.53 115.449 104.676 115.785 105.737C116.083 106.679 116.957 107.296 117.916 107.296C118.038 107.296 118.159 107.286 118.28 107.265C119.715 107.029 121.167 106.901 122.598 106.88C118.675 108.544 114.417 111.208 110.809 115.484C107.691 119.178 105.511 123.506 104.326 128.347C104.059 129.439 104.641 130.558 105.688 130.967C105.955 131.071 106.228 131.119 106.499 131.119C107.296 131.119 108.058 130.693 108.463 129.958C108.987 129.002 109.59 128.101 110.262 127.259C108.883 132.093 109.752 136.379 110.546 138.815C110.362 138.805 110.175 138.801 109.988 138.801C108.505 138.801 107.084 139.089 105.767 139.654C101.547 141.466 100.001 145.403 99.2599 147.295C97.8149 150.982 97.5412 155.434 98.5114 159.516C99.5821 164.011 102.001 167.5 105.331 169.35C106.426 169.96 107.621 170.39 108.893 170.639C109.316 172.036 109.974 173.311 110.854 174.444C111.19 174.874 111.558 175.286 111.953 175.667C112.927 177.251 113.966 178.824 115.047 180.352C117.331 183.585 120.817 188.028 123.073 190.138C127.085 193.898 132.966 195.804 140.544 195.804C150.361 195.804 159.796 192.55 160.191 192.411C162.901 191.465 165.545 190.287 168.071 188.901C170.355 190.661 172.957 191.926 175.688 192.588C177.244 192.966 178.858 193.156 180.49 193.156C185.529 193.156 190.28 191.396 193.873 188.201C198.024 184.511 200.748 178.637 200.983 172.878C201.164 168.491 199.871 164.624 197.352 161.983V161.994ZM192.386 186.538C188.017 190.426 181.741 191.76 176.218 190.422C172.326 189.476 169.665 187.414 168.317 186.198C166.359 187.349 163.345 188.949 159.457 190.304C158.254 190.724 135.242 198.475 124.604 188.509C122.584 186.617 119.282 182.466 116.877 179.063C115.47 177.074 114.399 175.38 113.706 174.243C113.349 173.918 112.978 173.533 112.622 173.072C111.357 171.443 110.903 169.732 110.719 168.623C109.628 168.547 108.034 168.294 106.415 167.393C100.5 164.104 98.7505 154.72 101.342 148.112C102.029 146.359 103.286 143.157 106.651 141.712C110.872 139.9 115.068 142.294 115.636 142.631C116.108 140.479 117.227 136.795 120.134 133.205C121.759 131.199 123.481 129.792 124.867 128.843C123.606 128.493 121.881 128.26 120.054 128.815C116.232 129.972 113.46 134.106 113.082 139.224C112.542 137.904 110.695 132.942 112.653 127.127C114.205 122.522 117.296 119.899 118.564 118.932C116.908 119.466 114.268 120.54 111.599 122.737C108.91 124.951 107.344 127.356 106.506 128.884C107.209 126.005 108.782 121.372 112.525 116.933C120.051 108.013 130.595 106.711 133.198 106.465C131.923 105.997 130.474 105.564 128.866 105.234C124.493 104.347 120.668 104.607 117.92 105.058C121.333 103.398 128.69 100.394 138.292 101.017C145.728 101.499 151.379 103.956 154.567 105.643C152.402 103.803 149.179 101.471 144.865 99.5862C140.031 97.4724 135.675 96.7274 132.671 96.4502C137.12 96.0482 148.833 95.5839 161.297 102.362C173.314 108.897 179.253 118.478 181.416 122.422C181.551 121.181 181.585 119.438 181.125 117.446C180.262 113.724 178.172 111.288 177.084 110.186C178.529 110.938 182.691 113.336 185.279 118.499C187.885 123.69 187.299 128.489 187.036 130.09C187.74 129.082 188.738 127.391 189.306 125.09C189.923 122.581 189.753 120.457 189.555 119.202C190.325 120.828 192.12 125.187 191.135 130.676C190.48 134.328 188.873 136.958 187.837 138.382C189.046 138.261 190.429 138.039 191.936 137.661C193.679 137.221 195.183 136.667 196.423 136.119C195.602 137.519 194.185 139.533 191.898 141.39C190.207 142.762 188.561 143.625 187.289 144.169C188.232 144.717 189.299 145.274 190.491 145.805C191.596 146.297 192.643 146.692 193.613 147.014C192.688 147.364 191.589 147.71 190.335 147.97C188.786 148.293 187.39 148.403 186.236 148.421C186.721 149.228 187.338 150.458 187.691 152.059C187.982 153.373 188.003 154.52 187.954 155.368C187.594 155.31 187.234 155.251 186.87 155.192C187.043 155.833 187.202 156.654 187.251 157.621C187.296 158.588 187.216 159.426 187.105 160.081C189.34 160.195 193.097 160.778 195.73 163.536C201.056 169.111 198.994 180.654 192.383 186.534L192.386 186.538Z" fill="#F2F2F2"/>
<path id="Vector_3" d="M186.221 161.613C185.14 161.783 182.215 162.393 179.897 164.902C175.801 169.341 177.503 175.516 177.614 175.89C177.007 175.172 176.404 174.459 175.798 173.741C175.542 174.448 175.101 175.661 174.561 177.179C173.41 180.398 173.234 180.952 172.756 181.687C172.16 182.605 171.006 183.936 168.656 184.972C170.056 186.119 173.345 188.486 178.088 189.005C178.778 189.082 187.742 189.913 193.245 183.153C197.22 178.27 199.171 169.687 194.707 164.905C191.918 161.915 187.777 161.641 186.218 161.617L186.221 161.613ZM195.13 175.89C194.815 181.548 187.988 186.441 181.619 186.316C177.534 186.237 174.54 184.113 173.307 183.115C179.665 186.077 186.287 185.894 190.05 182.432C191.724 180.89 194.458 177.207 193.505 173.741C193.38 173.284 193.037 172.106 191.984 171.312C190.126 169.912 186.904 170.346 183.952 172.525C185.587 174.081 185.473 176.503 184.198 177.595C183.255 178.402 181.696 178.471 180.393 177.712C181.651 178.333 183.127 177.709 183.553 176.548C183.934 175.516 183.411 174.247 182.285 173.741C181.713 173.887 181.141 174.032 180.566 174.178C184.142 169.313 189.302 167.792 192.282 169.538C194.489 170.831 195.248 173.769 195.13 175.89Z" fill="#F2F2F2"/>
<path id="Vector_4" d="M115.442 144.361C114.818 143.931 111.326 141.592 107.621 142.763C102.891 144.26 101.859 150.207 101.55 151.995C100.684 156.995 102.216 163.561 106.977 166.334C108.366 167.141 109.728 167.453 110.723 167.581C110.674 166.826 110.691 165.703 111.035 164.407C111.412 162.993 112.026 161.947 112.479 161.299H110.137C110.698 161.042 111.61 160.526 112.362 159.542C112.663 159.15 112.875 158.762 113.024 158.426C112.646 158.565 112.032 158.738 111.267 158.724C110.369 158.71 109.676 158.45 109.288 158.27C110.359 157.885 111.603 157.338 112.906 156.534C113.578 156.122 114.174 155.695 114.701 155.283C114.139 155.293 113.377 155.245 112.514 155.006C111.883 154.833 111.36 154.6 110.951 154.386C111.582 154.393 113.1 154.32 114.621 153.332C115.671 152.65 116.291 151.814 116.61 151.302C116.839 149.881 116.943 147.708 115.986 145.449C115.82 145.054 115.633 144.69 115.439 144.357L115.442 144.361ZM109.014 147.961C106.499 148.322 105.521 152.636 105.539 155.144C105.573 160.2 109.683 163.502 110.494 164.13C109.929 163.818 104.849 160.907 104.426 155.505C104.142 151.887 105.937 147.039 108.741 146.856C110.754 146.724 112.968 149.028 114.184 152.265C112.94 149.479 110.795 147.701 109.014 147.958V147.961Z" fill="#F2F2F2"/>
<path id="Vector_5" d="M165.145 140.718C159.722 137.454 151.87 136.594 146.187 140.132C144.746 141.03 143.703 142.049 142.996 142.856C142.642 142.419 142.244 141.855 141.883 141.158C141.412 140.25 141.152 139.412 141.007 138.757C140.795 139.561 140.622 140.482 140.539 141.508C140.303 144.436 140.924 146.862 141.495 148.445C140.369 147.167 138.737 144.984 137.632 141.889C136.71 139.308 136.488 137.021 136.46 135.451C135.203 134.789 131.048 132.817 127.007 134.456C123.463 135.894 121.966 139.311 120.237 143.258C119.225 145.569 118.805 147.922 117.974 152.624C117.083 157.642 117.288 159.177 118.213 160.282C119.214 161.471 120.763 161.81 121.827 161.914C121.023 162.652 119.79 163.993 119.048 165.993C118.729 166.852 118.116 168.862 118.736 172.317C120.645 182.948 128.962 188.083 128.962 188.083C133.293 190.758 137.587 191.264 140.047 191.337C141.991 191.136 148.093 190.249 153.294 185.193C157.342 181.26 158.776 176.811 159.296 174.791C160.983 176.794 162.477 177.324 163.579 177.386C168.489 177.671 173.413 169.17 174.369 162.029C175.281 155.216 173.132 145.528 165.149 140.721L165.145 140.718ZM153.287 142.703C155.585 141.058 158.215 141.366 159.116 141.473C163.652 142.01 166.226 145.864 166.646 146.508C164.542 145.185 162.733 144.71 161.486 144.519C160.159 144.315 159.331 144.415 156.333 144.46C154.303 144.491 152.65 144.478 151.589 144.46C151.922 143.972 152.463 143.296 153.291 142.703H153.287ZM136.689 162.996C138.446 163.761 139.801 161.488 142.819 161.855C144.316 162.039 144.725 162.687 144.808 162.836C144.843 162.898 145.099 163.356 144.995 163.865C144.954 164.066 144.863 164.25 144.735 164.416C145.082 164.097 145.286 163.709 145.286 163.311C145.286 162.781 144.922 162.403 144.798 162.275C143.668 161.107 141.433 161.786 141.246 161.845C143.2 161.013 145.002 161.152 145.695 162.081C145.716 162.112 146.218 162.801 145.979 163.581C145.775 164.246 145.103 164.745 144.243 164.874C143.055 165.709 140.858 166.028 140.158 166.125C139.267 166.253 138.082 166.409 136.585 166.076C135.636 165.865 134.243 165.556 133.366 164.368C133.141 164.063 132.888 163.612 132.749 163.158C132.455 162.701 132.392 162.237 132.625 162.001C132.69 161.935 132.774 161.897 132.867 161.876C133.3 161.363 134.236 161.474 134.419 161.499C135.611 161.668 135.729 162.573 136.686 162.992L136.689 162.996ZM127.704 138.667C129.804 138.06 132.67 138.448 134.132 140.396C134.697 141.148 134.905 141.938 134.991 142.444C134.322 142.201 133.331 141.844 132.119 141.439C129.558 140.579 128.917 140.465 128.657 140.423C127.794 140.281 126.47 140.174 124.776 140.482C125.41 139.817 126.373 139.051 127.704 138.667ZM125.725 146.359C126.048 146.103 128.182 144.443 130.469 145.042C131.554 145.327 132.41 146.054 133.061 147.011C133.106 147.08 133.151 147.149 133.196 147.219C133.657 147.953 134.004 148.802 134.246 149.686C134.62 151.051 134.749 152.493 134.662 153.692C134.614 154.353 134.555 155.116 134.284 155.878C134.128 156.315 133.903 156.751 133.567 157.164C133.013 157.85 132.25 158.37 131.381 158.719C129.818 159.347 127.922 159.416 126.314 158.865C125.649 158.636 125.036 158.307 124.513 157.864C121.297 155.13 122.503 148.93 125.722 146.349L125.725 146.359ZM153.474 173.277C152.577 174.93 150.986 177.393 148.322 179.649C146.658 181.056 139.991 186.701 133.609 184.448C128.671 182.705 126.373 177.109 125.334 174.576C124.582 172.74 124.208 171.111 124.007 169.95C123.996 169.78 123.92 168.952 123.227 168.37C122.835 168.044 122.42 167.94 122.201 167.902C122.721 167.538 123.241 167.175 123.764 166.811C123.747 167.071 123.754 167.466 123.892 167.902C124.232 168.99 125.126 169.586 125.483 169.825C128.099 171.568 134.936 172.625 134.936 172.625C141.637 173.661 143.058 173.984 145.979 173.796C147.556 173.696 148.852 173.492 149.729 173.329C150.494 173.031 151.257 172.729 152.023 172.431C151.912 171.991 151.801 171.554 151.69 171.114C152.061 171.388 152.456 171.662 152.882 171.936C153.724 172.476 154.535 172.916 155.29 173.284H153.474V173.277ZM167.356 158.92C167.231 159.665 166.95 160.31 166.601 160.861C166.289 161.353 165.921 161.769 165.561 162.119C165.079 162.583 164.605 162.93 164.275 163.172C162.47 164.492 160.55 164.86 158.606 164.901C157.591 164.922 156.572 164.856 155.557 164.787C152.508 164.586 151.503 163.806 151.045 163.366C150.671 163.006 150.394 162.614 150.189 162.233C149.836 161.582 149.694 160.972 149.621 160.632C148.89 157.33 150.893 153.57 153.776 151.616C154.545 151.096 155.928 150.327 157.951 150.053C159.036 150.074 161.715 150.289 164.078 152.24C164.629 152.694 167.942 155.424 167.356 158.914V158.92Z" fill="#F2F2F2"/>
<path id="Vector_6" d="M132.87 161.88C133.227 161.804 133.76 162.026 134.204 162.469C134.769 163.034 134.977 163.741 134.668 164.046C134.36 164.354 133.653 164.146 133.092 163.582C132.956 163.446 132.842 163.304 132.752 163.159C132.891 163.613 133.144 164.063 133.369 164.368C134.245 165.557 135.638 165.865 136.588 166.077C138.081 166.409 139.266 166.253 140.16 166.125C140.857 166.025 143.057 165.709 144.246 164.874C144.145 164.888 144.045 164.902 143.941 164.905C144.253 164.781 144.523 164.614 144.738 164.417C144.866 164.25 144.96 164.067 144.998 163.866C145.102 163.356 144.845 162.899 144.811 162.837C144.724 162.688 144.315 162.04 142.822 161.856C139.804 161.489 138.445 163.762 136.692 162.996C135.732 162.577 135.618 161.672 134.426 161.503C134.242 161.475 133.31 161.367 132.873 161.88H132.87ZM141.983 163.634C142.766 163.474 143.47 163.693 143.556 164.119C143.643 164.545 143.078 165.02 142.299 165.179C141.515 165.338 140.812 165.12 140.725 164.694C140.639 164.268 141.204 163.793 141.983 163.634Z" fill="#F2F2F2"/>
<path id="Vector_7" d="M135.339 173.083C133.024 172.681 131.61 172.355 130.831 172.165C129.153 171.756 127.691 171.326 126.478 170.935C126.406 171.288 126.35 171.874 126.613 172.456C126.936 173.159 127.577 173.523 128.058 173.745C131.014 175.11 138.742 176.167 139.317 176.247C139.753 176.306 143.347 176.805 146.517 176.378C147.28 176.278 148.395 176.07 149.075 175.169C149.494 174.615 149.594 173.991 149.622 173.589C149.047 173.721 148.181 173.897 147.12 174.032C143.523 174.486 140.717 174.015 135.339 173.083Z" fill="#F2F2F2"/>
<path id="Vector_8" d="M136.576 180.86C136.951 180.386 137.477 179.807 138.188 179.246C138.804 178.757 139.397 178.414 139.892 178.168C139.355 177.97 135.693 176.702 132.439 178.754C131.115 179.589 130.332 180.673 129.902 181.408C131.999 183.328 134.033 183.865 135.013 184.048C138.167 184.631 140.8 183.445 142.897 182.499C144.681 181.696 146.029 180.767 146.916 180.081C146.088 179.707 144.965 179.322 143.6 179.183C140.218 178.837 137.602 180.233 136.576 180.86Z" fill="#F2F2F2"/>
<path id="Vector_9" d="M144.247 164.879C145.11 164.75 145.779 164.248 145.983 163.586C146.223 162.806 145.724 162.117 145.699 162.086C145.006 161.157 143.204 161.022 141.25 161.85C141.437 161.791 143.672 161.112 144.802 162.28C144.927 162.408 145.29 162.786 145.29 163.316C145.29 163.714 145.089 164.102 144.739 164.421C144.611 164.588 144.441 164.74 144.247 164.879Z" fill="#F2F2F2"/>
<path id="Vector_10" d="M144.244 164.876C144.442 164.738 144.608 164.585 144.736 164.419C144.522 164.616 144.251 164.783 143.939 164.908C144.043 164.904 144.144 164.89 144.244 164.876Z" fill="#F2F2F2"/>
<path id="Vector_11" d="M133.199 147.218C133.154 147.148 133.108 147.079 133.063 147.01C132.727 146.934 132.381 146.882 132.027 146.864C132.433 146.947 132.824 147.069 133.199 147.218Z" fill="#F2F2F2"/>
<path id="Vector_12" d="M131.717 146.856C128.435 146.856 125.777 149.514 125.777 152.796C125.777 156.077 128.258 158.551 131.384 158.725C132.254 158.375 133.016 157.851 133.571 157.169C133.907 156.753 134.132 156.32 134.288 155.883C133.768 156.181 133.162 156.354 132.521 156.354C130.556 156.354 128.962 154.76 128.962 152.796C128.962 151.254 129.942 149.94 131.318 149.448C131.606 149.081 132.053 148.842 132.559 148.842C133.065 148.842 133.543 149.098 133.83 149.49C133.976 149.549 134.118 149.615 134.253 149.691C134.011 148.807 133.664 147.955 133.203 147.224C132.829 147.071 132.437 146.953 132.032 146.87C131.928 146.863 131.828 146.863 131.724 146.863L131.717 146.856Z" fill="#F2F2F2"/>
<path id="Vector_13" d="M133.833 149.489C133.545 149.098 133.084 148.841 132.561 148.841C132.038 148.841 131.608 149.08 131.32 149.448C131.695 149.313 132.1 149.24 132.523 149.24C132.984 149.24 133.427 149.33 133.833 149.489Z" fill="#F2F2F2"/>
<path id="Vector_14" d="M132.557 151.995C133.427 151.995 134.134 151.288 134.134 150.418C134.134 150.071 134.019 149.749 133.829 149.489C133.423 149.33 132.983 149.24 132.519 149.24C132.096 149.24 131.691 149.313 131.317 149.448C131.109 149.714 130.98 150.051 130.98 150.418C130.98 151.288 131.687 151.995 132.557 151.995Z" fill="#F2F2F2"/>
<path id="Vector_15" d="M166.604 159.218C166.629 158.986 166.642 158.75 166.642 158.511C166.642 155.07 163.995 152.25 160.627 151.976C163.86 152.922 166.282 155.767 166.604 159.218Z" fill="#F2F2F2"/>
<path id="Vector_16" d="M160.629 151.973C160.449 151.96 160.269 151.949 160.085 151.949C156.46 151.949 153.525 154.888 153.525 158.509C153.525 161.624 155.698 164.23 158.609 164.902C160.549 164.86 162.472 164.493 164.278 163.173C164.607 162.93 165.082 162.584 165.563 162.119C166.125 161.271 166.496 160.279 166.61 159.216C166.284 155.761 163.865 152.919 160.632 151.973H160.629ZM160.58 161.614C158.436 161.614 156.696 159.874 156.696 157.729C156.696 155.958 157.881 154.468 159.499 154.001C159.78 153.734 160.161 153.567 160.58 153.567C161 153.567 161.381 153.734 161.662 154.001C163.28 154.468 164.465 155.962 164.465 157.729C164.465 159.874 162.725 161.614 160.58 161.614Z" fill="#F2F2F2"/>
<path id="Vector_17" d="M161.66 153.999C161.38 153.732 160.998 153.566 160.579 153.566C160.16 153.566 159.779 153.732 159.498 153.999C159.841 153.899 160.205 153.847 160.579 153.847C160.953 153.847 161.317 153.902 161.66 153.999Z" fill="#F2F2F2"/>
<path id="Vector_18" d="M160.583 156.721C161.452 156.721 162.159 156.014 162.159 155.145C162.159 154.694 161.969 154.289 161.664 154.001C161.321 153.901 160.957 153.849 160.583 153.849C160.208 153.849 159.844 153.904 159.501 154.001C159.196 154.289 159.006 154.694 159.006 155.145C159.006 156.014 159.713 156.721 160.583 156.721Z" fill="#F2F2F2"/>
</g>
<path id="Vector_19" d="M249.954 149.503C249.954 166.337 245.813 182.207 238.492 196.145C253.295 203.118 268.095 210.088 282.898 217.061C293.195 196.77 299 173.815 299 149.503C299 149.141 298.995 148.779 298.993 148.417C282.633 147.83 266.275 147.243 249.914 146.655C249.94 147.602 249.954 148.551 249.954 149.503Z" fill="#A2644B"/>
<path id="Vector_20" d="M238.491 196.145C236.017 200.855 233.179 205.34 230.017 209.571C211.7 234.086 182.454 249.955 149.5 249.955C136.969 249.955 124.976 247.66 113.913 243.469C107.96 258.699 102.01 273.932 96.0566 289.162C112.652 295.517 130.668 298.998 149.5 298.998C199.927 298.998 244.517 274.028 271.594 235.782C275.797 229.845 279.582 223.591 282.897 217.058C268.094 210.086 253.294 203.115 238.491 196.143V196.145Z" fill="#EDDD09"/>
</g>
</svg>
