<svg width="300" height="300" viewBox="0 0 300 300" fill="none" xmlns="http://www.w3.org/2000/svg">
<g id="grafic_movefit">
<g id="Group">
<path id="Vector" d="M193.548 165.285C191.749 163.399 189.255 162.167 186.263 161.665C186.263 161.488 186.256 161.308 186.25 161.131C186.243 160.979 186.234 160.831 186.221 160.68C186.623 160.316 186.871 159.805 186.903 159.258C186.974 158.035 186.877 156.812 186.613 155.618C186.53 155.245 186.433 154.875 186.317 154.511C186.7 154.453 187.08 154.382 187.46 154.305C188.599 154.07 189.728 153.739 190.819 153.324C191.643 153.012 192.181 152.213 192.161 151.335C192.142 150.456 191.572 149.681 190.736 149.404C190.037 149.172 189.339 148.912 188.657 148.625C189.046 148.352 189.426 148.065 189.796 147.766C191.672 146.244 193.249 144.407 194.481 142.308C194.938 141.53 194.842 140.548 194.243 139.872C193.841 139.419 193.272 139.174 192.689 139.174C192.406 139.174 192.123 139.232 191.852 139.351C190.823 139.802 189.757 140.185 188.676 140.493C189.198 139.222 189.587 137.903 189.825 136.567C190.781 131.226 189.21 126.81 188.19 124.654C187.84 123.911 187.096 123.464 186.311 123.464C186.108 123.464 185.902 123.493 185.7 123.557C185.165 123.721 184.737 124.088 184.486 124.548C184.396 124.352 184.303 124.156 184.203 123.959C181.719 119.007 177.803 116.423 175.692 115.325C175.386 115.168 175.058 115.09 174.733 115.09C174.089 115.09 173.461 115.39 173.059 115.934C172.85 116.22 172.721 116.542 172.673 116.873C169.252 113.362 165.358 110.411 161.066 108.075C152.052 103.184 143.334 102.154 137.606 102.154C136.145 102.154 134.736 102.218 133.297 102.347C132.226 102.444 131.405 103.341 131.405 104.416C131.405 105.491 132.223 106.389 133.294 106.489C133.548 106.511 133.799 106.537 134.05 106.566C128.824 106.872 123.618 108.23 118.871 110.54C117.944 110.991 117.487 112.056 117.799 113.041C118.076 113.916 118.887 114.489 119.779 114.489C119.891 114.489 120.004 114.479 120.116 114.46C121.449 114.241 122.797 114.122 124.126 114.103C120.483 115.647 116.528 118.122 113.178 122.093C110.282 125.523 108.258 129.543 107.158 134.038C106.91 135.052 107.45 136.091 108.422 136.471C108.67 136.567 108.924 136.613 109.175 136.613C109.915 136.613 110.623 136.217 111 135.534C111.486 134.646 112.046 133.81 112.67 133.028C111.389 137.517 112.197 141.497 112.934 143.76C112.763 143.75 112.59 143.747 112.416 143.747C111.038 143.747 109.719 144.014 108.496 144.538C104.577 146.222 103.141 149.877 102.453 151.634C101.111 155.058 100.857 159.193 101.758 162.984C102.752 167.158 104.998 170.398 108.091 172.117C109.108 172.683 110.218 173.082 111.399 173.314C111.791 174.611 112.403 175.795 113.22 176.847C113.532 177.246 113.874 177.629 114.24 177.983C115.145 179.454 116.11 180.915 117.114 182.334C119.235 185.336 122.472 189.462 124.567 191.422C128.293 194.913 133.754 196.683 140.792 196.683C149.909 196.683 158.671 193.661 159.038 193.533C161.555 192.654 164.01 191.56 166.356 190.273C168.477 191.908 170.893 193.082 173.429 193.697C174.874 194.048 176.374 194.225 177.889 194.225C182.568 194.225 186.98 192.59 190.317 189.623C194.173 186.196 196.702 180.741 196.921 175.393C197.088 171.319 195.888 167.727 193.548 165.275V165.285ZM188.937 188.078C184.879 191.689 179.051 192.928 173.922 191.686C170.308 190.807 167.836 188.892 166.585 187.763C164.766 188.831 161.967 190.318 158.356 191.576C157.239 191.966 135.869 199.164 125.989 189.909C124.113 188.152 121.046 184.297 118.813 181.137C117.507 179.29 116.512 177.716 115.869 176.661C115.537 176.358 115.193 176.001 114.861 175.573C113.687 174.061 113.265 172.471 113.095 171.441C112.081 171.37 110.601 171.135 109.098 170.299C103.605 167.245 101.98 158.53 104.387 152.394C105.024 150.765 106.192 147.792 109.317 146.45C113.236 144.767 117.133 146.991 117.661 147.303C118.099 145.304 119.138 141.884 121.838 138.55C123.347 136.687 124.947 135.38 126.234 134.498C125.063 134.173 123.46 133.958 121.764 134.473C118.215 135.547 115.64 139.386 115.289 144.139C114.787 142.913 113.072 138.305 114.89 132.905C116.332 128.629 119.203 126.193 120.38 125.295C118.842 125.79 116.39 126.788 113.912 128.828C111.415 130.884 109.96 133.118 109.182 134.537C109.835 131.863 111.296 127.56 114.771 123.438C121.761 115.155 131.553 113.945 133.97 113.716C132.786 113.282 131.441 112.88 129.947 112.574C125.886 111.75 122.334 111.992 119.782 112.41C122.952 110.868 129.783 108.078 138.7 108.658C145.606 109.105 150.855 111.387 153.815 112.954C151.804 111.245 148.811 109.079 144.805 107.329C140.316 105.366 136.271 104.674 133.481 104.416C137.613 104.043 148.49 103.612 160.065 109.906C171.225 115.975 176.741 124.873 178.749 128.535C178.874 127.383 178.906 125.765 178.478 123.914C177.677 120.458 175.737 118.196 174.726 117.173C176.068 117.871 179.933 120.098 182.337 124.893C184.757 129.713 184.213 134.17 183.968 135.657C184.621 134.72 185.548 133.15 186.076 131.013C186.649 128.683 186.491 126.711 186.308 125.546C187.022 127.055 188.689 131.103 187.775 136.201C187.167 139.592 185.674 142.035 184.712 143.357C185.835 143.245 187.119 143.039 188.519 142.688C190.137 142.279 191.534 141.765 192.686 141.256C191.923 142.556 190.607 144.426 188.483 146.151C186.913 147.425 185.384 148.226 184.203 148.732C185.078 149.24 186.07 149.758 187.177 150.25C188.203 150.707 189.175 151.074 190.076 151.374C189.217 151.699 188.197 152.02 187.032 152.262C185.593 152.561 184.296 152.664 183.225 152.68C183.675 153.43 184.248 154.572 184.576 156.059C184.847 157.279 184.866 158.344 184.821 159.132C184.486 159.077 184.152 159.023 183.814 158.968C183.975 159.563 184.123 160.326 184.168 161.224C184.21 162.122 184.136 162.9 184.033 163.509C186.108 163.615 189.597 164.155 192.042 166.717C196.988 171.895 195.074 182.614 188.934 188.075L188.937 188.078Z" fill="#F2F2F2"/>
<path id="Vector_2" d="M183.211 164.932C182.207 165.089 179.491 165.656 177.338 167.985C173.534 172.108 175.114 177.842 175.217 178.19C174.654 177.524 174.094 176.861 173.531 176.195C173.293 176.851 172.884 177.977 172.382 179.387C171.314 182.376 171.149 182.891 170.705 183.574C170.152 184.426 169.08 185.662 166.898 186.624C168.199 187.689 171.252 189.887 175.658 190.37C176.298 190.441 184.623 191.213 189.733 184.935C193.425 180.401 195.236 172.43 191.091 167.989C188.501 165.212 184.655 164.957 183.207 164.935L183.211 164.932ZM191.484 178.19C191.191 183.445 184.852 187.989 178.937 187.873C175.143 187.799 172.363 185.826 171.217 184.899C177.122 187.651 183.272 187.48 186.766 184.265C188.321 182.833 190.86 179.413 189.975 176.195C189.859 175.77 189.54 174.676 188.562 173.939C186.837 172.639 183.844 173.041 181.103 175.065C182.622 176.51 182.515 178.759 181.331 179.773C180.456 180.523 179.008 180.587 177.798 179.882C178.966 180.458 180.337 179.879 180.733 178.801C181.087 177.842 180.601 176.664 179.555 176.195C179.024 176.33 178.493 176.465 177.959 176.6C181.28 172.082 186.071 170.669 188.839 172.291C190.889 173.491 191.593 176.22 191.484 178.19Z" fill="#F2F2F2"/>
<path id="Vector_3" d="M117.482 148.91C116.903 148.511 113.659 146.339 110.219 147.426C105.826 148.817 104.867 154.339 104.581 155.999C103.776 160.643 105.199 166.741 109.62 169.315C110.911 170.065 112.175 170.355 113.099 170.474C113.054 169.772 113.07 168.73 113.389 167.526C113.739 166.213 114.309 165.241 114.73 164.64H112.555C113.076 164.401 113.923 163.922 114.621 163.008C114.901 162.644 115.097 162.284 115.236 161.972C114.885 162.101 114.315 162.261 113.604 162.249C112.771 162.236 112.127 161.994 111.767 161.827C112.761 161.47 113.916 160.961 115.126 160.215C115.751 159.832 116.304 159.436 116.793 159.053C116.272 159.063 115.564 159.018 114.763 158.796C114.177 158.635 113.691 158.419 113.311 158.22C113.897 158.226 115.306 158.159 116.719 157.241C117.694 156.607 118.27 155.832 118.566 155.356C118.779 154.036 118.875 152.019 117.987 149.92C117.833 149.554 117.659 149.216 117.479 148.907L117.482 148.91ZM111.512 152.253C109.176 152.588 108.269 156.595 108.285 158.924C108.317 163.619 112.133 166.686 112.887 167.269C112.362 166.979 107.644 164.276 107.252 159.259C106.988 155.899 108.655 151.397 111.258 151.227C113.128 151.105 115.184 153.245 116.314 156.25C115.158 153.663 113.166 152.012 111.512 152.25V152.253Z" fill="#F2F2F2"/>
<path id="Vector_4" d="M163.642 145.527C158.606 142.495 151.314 141.697 146.036 144.983C144.698 145.816 143.729 146.762 143.073 147.512C142.744 147.107 142.374 146.582 142.04 145.935C141.602 145.092 141.361 144.313 141.225 143.705C141.029 144.452 140.868 145.308 140.791 146.26C140.572 148.98 141.148 151.232 141.679 152.703C140.633 151.515 139.118 149.488 138.091 146.614C137.235 144.217 137.029 142.093 137.003 140.635C135.835 140.021 131.977 138.19 128.225 139.712C124.933 141.047 123.543 144.22 121.937 147.885C120.997 150.032 120.608 152.217 119.835 156.584C119.008 161.243 119.198 162.669 120.057 163.696C120.987 164.799 122.426 165.115 123.414 165.211C122.667 165.897 121.522 167.142 120.833 168.999C120.537 169.797 119.967 171.663 120.543 174.872C122.316 184.745 130.04 189.514 130.04 189.514C134.062 191.998 138.049 192.468 140.334 192.535C142.139 192.349 147.806 191.525 152.637 186.83C156.395 183.177 157.727 179.045 158.21 177.169C159.777 179.029 161.164 179.522 162.188 179.58C166.748 179.843 171.32 171.95 172.208 165.317C173.055 158.991 171.06 149.993 163.645 145.53L163.642 145.527ZM152.63 147.371C154.764 145.842 157.206 146.128 158.043 146.228C162.255 146.727 164.646 150.305 165.036 150.904C163.082 149.675 161.402 149.234 160.244 149.057C159.011 148.867 158.242 148.96 155.459 149.002C153.573 149.031 152.038 149.018 151.053 149.002C151.362 148.548 151.864 147.921 152.633 147.371H152.63ZM137.216 166.215C138.847 166.926 140.106 164.815 142.909 165.156C144.299 165.327 144.678 165.929 144.756 166.067C144.788 166.125 145.026 166.55 144.929 167.023C144.891 167.21 144.807 167.38 144.688 167.535C145.01 167.239 145.2 166.878 145.2 166.508C145.2 166.016 144.862 165.665 144.746 165.546C143.697 164.461 141.621 165.092 141.448 165.147C143.262 164.375 144.936 164.503 145.579 165.366C145.599 165.395 146.065 166.035 145.843 166.759C145.653 167.377 145.029 167.84 144.231 167.959C143.127 168.735 141.087 169.031 140.437 169.121C139.61 169.24 138.509 169.385 137.119 169.076C136.238 168.88 134.944 168.593 134.13 167.49C133.921 167.206 133.686 166.788 133.557 166.366C133.283 165.942 133.226 165.51 133.441 165.292C133.502 165.23 133.579 165.195 133.666 165.176C134.069 164.7 134.937 164.802 135.108 164.825C136.215 164.983 136.324 165.823 137.213 166.212L137.216 166.215ZM128.872 143.622C130.822 143.058 133.483 143.419 134.841 145.227C135.365 145.926 135.559 146.659 135.639 147.129C135.018 146.904 134.098 146.572 132.971 146.196C130.593 145.398 129.998 145.292 129.756 145.253C128.955 145.121 127.726 145.021 126.152 145.308C126.741 144.69 127.636 143.979 128.872 143.622ZM127.034 150.766C127.333 150.527 129.316 148.986 131.44 149.543C132.447 149.807 133.242 150.482 133.847 151.371C133.888 151.435 133.93 151.499 133.972 151.564C134.4 152.246 134.722 153.034 134.947 153.855C135.295 155.123 135.414 156.461 135.333 157.575C135.288 158.189 135.234 158.897 134.983 159.605C134.838 160.011 134.629 160.416 134.316 160.799C133.802 161.436 133.094 161.919 132.286 162.244C130.835 162.827 129.074 162.891 127.581 162.379C126.963 162.167 126.394 161.861 125.908 161.449C122.921 158.91 124.041 153.153 127.031 150.756L127.034 150.766ZM152.804 175.763C151.97 177.298 150.493 179.586 148.019 181.681C146.474 182.987 140.283 188.23 134.355 186.138C129.769 184.519 127.636 179.322 126.67 176.97C125.972 175.264 125.625 173.752 125.438 172.674C125.428 172.516 125.357 171.747 124.714 171.206C124.35 170.904 123.964 170.807 123.761 170.772C124.244 170.434 124.727 170.096 125.213 169.758C125.197 170 125.203 170.366 125.332 170.772C125.647 171.782 126.477 172.336 126.809 172.558C129.238 174.177 135.588 175.158 135.588 175.158C141.811 176.12 143.131 176.42 145.843 176.246C147.308 176.152 148.511 175.963 149.325 175.811C150.036 175.535 150.744 175.255 151.456 174.978C151.353 174.569 151.25 174.164 151.147 173.755C151.491 174.009 151.858 174.263 152.254 174.518C153.036 175.02 153.789 175.428 154.49 175.769H152.804V175.763ZM165.695 162.431C165.579 163.123 165.319 163.721 164.994 164.233C164.704 164.69 164.363 165.076 164.028 165.401C163.581 165.832 163.14 166.154 162.834 166.379C161.158 167.605 159.375 167.946 157.57 167.985C156.627 168.004 155.681 167.943 154.738 167.879C151.906 167.692 150.973 166.968 150.548 166.56C150.201 166.225 149.943 165.861 149.753 165.507C149.425 164.902 149.293 164.336 149.225 164.021C148.546 160.954 150.406 157.462 153.084 155.647C153.798 155.165 155.082 154.45 156.962 154.196C157.969 154.215 160.456 154.415 162.651 156.226C163.163 156.648 166.239 159.184 165.695 162.424V162.431Z" fill="#F2F2F2"/>
<path id="Vector_5" d="M133.664 165.18C133.996 165.109 134.491 165.315 134.903 165.727C135.428 166.251 135.621 166.908 135.334 167.191C135.048 167.477 134.391 167.284 133.87 166.76C133.745 166.634 133.638 166.502 133.555 166.367C133.683 166.789 133.918 167.207 134.127 167.49C134.942 168.594 136.235 168.88 137.117 169.077C138.504 169.386 139.605 169.241 140.435 169.122C141.082 169.028 143.125 168.736 144.229 167.96C144.136 167.973 144.042 167.986 143.946 167.989C144.235 167.873 144.486 167.719 144.686 167.535C144.805 167.381 144.892 167.21 144.927 167.024C145.024 166.551 144.786 166.126 144.753 166.068C144.673 165.929 144.293 165.328 142.906 165.157C140.103 164.816 138.842 166.927 137.214 166.216C136.322 165.827 136.216 164.987 135.109 164.829C134.938 164.803 134.073 164.703 133.667 165.18H133.664ZM142.127 166.808C142.855 166.66 143.508 166.863 143.588 167.259C143.669 167.654 143.144 168.095 142.42 168.243C141.693 168.391 141.04 168.189 140.959 167.793C140.879 167.397 141.403 166.956 142.127 166.808Z" fill="#F2F2F2"/>
<path id="Vector_6" d="M135.956 175.583C133.807 175.21 132.494 174.907 131.77 174.73C130.212 174.351 128.854 173.952 127.728 173.588C127.66 173.916 127.609 174.46 127.853 175.001C128.153 175.654 128.748 175.992 129.195 176.198C131.94 177.466 139.116 178.447 139.651 178.521C140.056 178.576 143.393 179.039 146.338 178.644C147.046 178.55 148.082 178.357 148.713 177.52C149.102 177.006 149.195 176.426 149.221 176.053C148.687 176.175 147.882 176.339 146.898 176.465C143.557 176.886 140.951 176.449 135.956 175.583Z" fill="#F2F2F2"/>
<path id="Vector_7" d="M137.104 182.806C137.452 182.365 137.941 181.828 138.601 181.306C139.173 180.853 139.724 180.534 140.184 180.305C139.685 180.122 136.284 178.944 133.262 180.849C132.033 181.625 131.305 182.632 130.906 183.314C132.853 185.097 134.742 185.596 135.653 185.766C138.581 186.307 141.027 185.207 142.974 184.328C144.631 183.581 145.883 182.719 146.707 182.082C145.938 181.734 144.895 181.377 143.627 181.248C140.486 180.927 138.057 182.223 137.104 182.806Z" fill="#F2F2F2"/>
<path id="Vector_8" d="M144.229 167.964C145.03 167.845 145.651 167.378 145.841 166.764C146.063 166.04 145.6 165.399 145.577 165.37C144.934 164.508 143.26 164.382 141.445 165.151C141.619 165.097 143.695 164.466 144.744 165.551C144.86 165.67 145.198 166.02 145.198 166.513C145.198 166.883 145.011 167.243 144.686 167.539C144.567 167.694 144.409 167.835 144.229 167.964Z" fill="#F2F2F2"/>
<path id="Vector_9" d="M144.228 167.962C144.412 167.833 144.566 167.692 144.685 167.537C144.486 167.721 144.235 167.875 143.945 167.991C144.042 167.988 144.135 167.975 144.228 167.962Z" fill="#F2F2F2"/>
<path id="Vector_10" d="M133.97 151.563C133.929 151.498 133.887 151.434 133.845 151.37C133.533 151.299 133.211 151.251 132.883 151.235C133.259 151.312 133.623 151.424 133.97 151.563Z" fill="#F2F2F2"/>
<path id="Vector_11" d="M132.594 151.227C129.546 151.227 127.078 153.695 127.078 156.743C127.078 159.79 129.382 162.088 132.285 162.249C133.093 161.924 133.801 161.438 134.315 160.804C134.628 160.418 134.837 160.015 134.982 159.61C134.499 159.887 133.936 160.048 133.34 160.048C131.516 160.048 130.035 158.567 130.035 156.743C130.035 155.311 130.946 154.091 132.224 153.634C132.491 153.293 132.906 153.071 133.376 153.071C133.846 153.071 134.29 153.309 134.557 153.673C134.692 153.727 134.824 153.789 134.949 153.859C134.724 153.039 134.402 152.247 133.974 151.568C133.627 151.427 133.263 151.317 132.887 151.24C132.79 151.233 132.697 151.233 132.6 151.233L132.594 151.227Z" fill="#F2F2F2"/>
<path id="Vector_12" d="M134.56 153.673C134.293 153.309 133.865 153.071 133.379 153.071C132.893 153.071 132.494 153.293 132.227 153.634C132.574 153.508 132.951 153.441 133.343 153.441C133.771 153.441 134.183 153.525 134.56 153.673Z" fill="#F2F2F2"/>
<path id="Vector_13" d="M133.378 155.999C134.186 155.999 134.842 155.342 134.842 154.535C134.842 154.213 134.736 153.914 134.559 153.672C134.183 153.524 133.774 153.441 133.343 153.441C132.95 153.441 132.574 153.508 132.226 153.634C132.033 153.881 131.914 154.194 131.914 154.535C131.914 155.342 132.571 155.999 133.378 155.999Z" fill="#F2F2F2"/>
<path id="Vector_14" d="M164.996 162.707C165.019 162.492 165.032 162.273 165.032 162.051C165.032 158.855 162.573 156.236 159.445 155.982C162.448 156.86 164.697 159.502 164.996 162.707Z" fill="#F2F2F2"/>
<path id="Vector_15" d="M159.441 155.979C159.273 155.966 159.106 155.957 158.935 155.957C155.569 155.957 152.844 158.686 152.844 162.049C152.844 164.942 154.861 167.361 157.565 167.986C159.367 167.947 161.153 167.606 162.829 166.38C163.135 166.155 163.576 165.833 164.023 165.402C164.544 164.613 164.889 163.693 164.995 162.705C164.692 159.497 162.446 156.858 159.444 155.979H159.441ZM159.396 164.932C157.404 164.932 155.788 163.316 155.788 161.324C155.788 159.68 156.889 158.296 158.392 157.862C158.652 157.614 159.006 157.46 159.396 157.46C159.785 157.46 160.139 157.614 160.4 157.862C161.902 158.296 163.003 159.683 163.003 161.324C163.003 163.316 161.388 164.932 159.396 164.932Z" fill="#F2F2F2"/>
<path id="Vector_16" d="M160.399 157.861C160.138 157.613 159.784 157.458 159.395 157.458C159.005 157.458 158.651 157.613 158.391 157.861C158.709 157.767 159.047 157.719 159.395 157.719C159.742 157.719 160.08 157.771 160.399 157.861Z" fill="#F2F2F2"/>
<path id="Vector_17" d="M159.402 160.388C160.209 160.388 160.866 159.732 160.866 158.924C160.866 158.506 160.689 158.129 160.406 157.862C160.087 157.769 159.749 157.721 159.402 157.721C159.054 157.721 158.716 157.772 158.398 157.862C158.114 158.129 157.938 158.506 157.938 158.924C157.938 159.732 158.594 160.388 159.402 160.388Z" fill="#F2F2F2"/>
</g>
<g id="Mask group">
<mask id="mask0_111_329" style="mask-type:alpha" maskUnits="userSpaceOnUse" x="0" y="0" width="300" height="300">
<path id="Vector_18" d="M149.73 0C67.0348 0 0 67.0348 0 149.73C0 232.425 67.0348 299.46 149.73 299.46C232.425 299.46 299.46 232.425 299.46 149.73C299.46 67.0348 232.422 0 149.73 0ZM149.73 249.907C94.4017 249.907 49.5498 205.055 49.5498 149.727C49.5498 94.3988 94.4017 49.5498 149.73 49.5498C205.058 49.5498 249.91 94.4017 249.91 149.73C249.91 205.058 205.058 249.91 149.73 249.91V249.907Z" fill="white"/>
</mask>
<g mask="url(#mask0_111_329)">
<path id="Vector_19" d="M149.73 0C67.0348 0 0 67.0348 0 149.73C0 232.425 67.0348 299.46 149.73 299.46C232.425 299.46 299.46 232.425 299.46 149.73C299.46 67.0348 232.422 0 149.73 0ZM149.73 249.907C94.4017 249.907 49.5498 205.055 49.5498 149.727C49.5498 94.3988 94.4017 49.5498 149.73 49.5498C205.058 49.5498 249.91 94.4017 249.91 149.73C249.91 205.058 205.058 249.91 149.73 249.91V249.907Z" fill="white"/>
<path id="Vector 1" d="M333.24 136.337H203.347L134 108.5L89 -13.5L285.5 0L333.24 136.337Z" fill="#03A4FA"/>
<path id="Vector 1_2" d="M89 194.5L-22 273L113.5 337L306 321.291L341 155L262 23.4999L207.5 92.4999C207.5 92.4999 108.233 195.964 89 194.5Z" fill="#EDDD09"/>
<path id="Vector 2" d="M177 85.5001L239.5 -10.4999L46 -28.9999L-108 201.5L2.5 260L82 201.5L177 85.5001Z" fill="#069C3E"/>
</g>
</g>
</g>
</svg>
