<svg width="73" height="72" viewBox="0 0 73 72" fill="none" xmlns="http://www.w3.org/2000/svg">
<g id="moveApe_icon">
<path id="Vector" d="M70.2405 48.0315C68.8719 46.5968 66.9744 45.6591 64.6975 45.2771C64.6975 45.1425 64.6926 45.0054 64.6877 44.8707C64.6828 44.7556 64.6754 44.643 64.6657 44.5279C64.9717 44.2513 65.1602 43.862 65.1847 43.4458C65.2386 42.5154 65.1651 41.585 64.9643 40.6767C64.9007 40.3927 64.8272 40.1111 64.7391 39.8345C65.0305 39.7904 65.3194 39.7365 65.6083 39.6778C66.475 39.4991 67.3343 39.2469 68.1643 38.931C68.7911 38.6935 69.2 38.0864 69.1853 37.418C69.1706 36.7496 68.7372 36.1595 68.1007 35.949C67.5694 35.7727 67.0381 35.5744 66.519 35.3565C66.8153 35.1484 67.1042 34.9305 67.3858 34.7028C68.8131 33.5447 70.0128 32.1467 70.9505 30.5504C71.2982 29.9579 71.2247 29.2111 70.7694 28.697C70.4633 28.3518 70.03 28.1657 69.5868 28.1657C69.3714 28.1657 69.1559 28.2098 68.9502 28.3003C68.1668 28.6431 67.3564 28.9345 66.5337 29.1695C66.9304 28.2024 67.2266 27.1986 67.4078 26.1825C68.135 22.1183 66.9402 18.7592 66.164 17.1188C65.8972 16.5532 65.3316 16.2129 64.7342 16.2129C64.58 16.2129 64.4233 16.2349 64.269 16.2839C63.8626 16.4088 63.537 16.6879 63.346 17.038C63.2774 16.8886 63.2064 16.7393 63.1305 16.5899C61.2404 12.822 58.2608 10.8559 56.6547 10.0211C56.4221 9.90108 56.1724 9.84232 55.9251 9.84232C55.4354 9.84232 54.958 10.07 54.6519 10.4838C54.4928 10.7017 54.3949 10.9465 54.3581 11.1987C51.7556 8.52756 48.7931 6.28244 45.527 4.50494C38.6692 0.783468 32.0366 0 27.6786 0C26.5671 0 25.4947 0.0489668 24.4003 0.1469C23.585 0.220351 22.9607 0.903437 22.9607 1.72118C22.9607 2.53893 23.5825 3.22201 24.3978 3.29791C24.5912 3.31505 24.7822 3.33464 24.9732 3.35667C20.9971 3.58926 17.0357 4.62246 13.4244 6.38037C12.7193 6.72314 12.3716 7.53354 12.6091 8.28273C12.8196 8.94868 13.4366 9.38448 14.1148 9.38448C14.2005 9.38448 14.2862 9.37714 14.3719 9.36245C15.3855 9.19596 16.4114 9.10537 17.4225 9.09068C14.651 10.2659 11.642 12.1487 9.09327 15.1699C6.88976 17.7798 5.34976 20.8378 4.51242 24.2581C4.3239 25.0294 4.73522 25.8202 5.47462 26.1091C5.66314 26.1825 5.85656 26.2168 6.04753 26.2168C6.61065 26.2168 7.14928 25.9157 7.43574 25.3966C7.80544 24.7209 8.23145 24.0843 8.70643 23.4894C7.73199 26.9048 8.34652 29.9334 8.90719 31.6546C8.77743 31.6472 8.64522 31.6448 8.51301 31.6448C7.46512 31.6448 6.4613 31.848 5.53093 32.2471C2.54886 33.5276 1.4569 36.3089 0.932953 37.6457C-0.0880042 40.2507 -0.281423 43.3968 0.404112 46.2809C1.16065 49.4564 2.86959 51.9219 5.22244 53.2293C5.99612 53.6602 6.84079 53.9638 7.73933 54.1401C8.03803 55.1268 8.50322 56.0278 9.12509 56.8284C9.36258 57.132 9.62211 57.4233 9.90122 57.6927C10.5892 58.8115 11.3237 59.9231 12.0876 61.0028C13.701 63.2871 16.1641 66.4259 17.7579 67.9169C20.5931 70.5734 24.7479 71.92 30.1025 71.92C37.0386 71.92 43.7054 69.621 43.9845 69.523C45.8991 68.8546 47.7672 68.0222 49.5521 67.0429C51.1655 68.2866 53.0042 69.1803 54.9335 69.6479C56.0328 69.9148 57.1737 70.0494 58.3269 70.0494C61.8868 70.0494 65.2435 68.8057 67.7824 66.5483C70.7155 63.9408 72.6399 59.7909 72.8064 55.7217C72.9337 52.6221 72.0205 49.8898 70.2405 48.0242V48.0315ZM66.732 65.3731C63.6447 68.1201 59.2108 69.0627 55.3081 68.1177C52.5586 67.4493 50.6783 65.9925 49.7259 65.1332C48.3426 65.946 46.2125 67.0771 43.4655 68.0344C42.6159 68.3307 26.3565 73.8076 18.8401 66.7662C17.4127 65.4294 15.0795 62.4963 13.3803 60.092C12.3863 58.6867 11.6297 57.4894 11.1401 56.6864C10.8879 56.4562 10.6259 56.1845 10.3737 55.8588C9.4801 54.7081 9.15937 53.4987 9.02961 52.7152C8.25838 52.6613 7.13215 52.4826 5.98877 51.846C1.80946 49.5225 0.573047 42.8924 2.4044 38.2235C2.88918 36.9846 3.77792 34.7223 6.15526 33.7014C9.13734 32.4209 12.1023 34.1127 12.5038 34.3502C12.8368 32.8298 13.6276 30.2272 15.6817 27.6907C16.83 26.2731 18.0468 25.2791 19.0262 24.6083C18.135 24.361 16.9157 24.1969 15.6254 24.5887C12.9249 25.4064 10.9662 28.3273 10.6994 31.9435C10.3174 31.0107 9.01247 27.5046 10.3958 23.3963C11.4926 20.1425 13.6766 18.2891 14.5726 17.606C13.4023 17.983 11.5367 18.742 9.65149 20.2943C7.75158 21.8588 6.64493 23.5579 6.05243 24.6376C6.54944 22.6031 7.66099 19.3296 10.3052 16.1933C15.623 9.89129 23.0733 8.97071 24.912 8.79688C24.011 8.46636 22.9876 8.16031 21.8516 7.92772C18.7618 7.30095 16.0588 7.48457 14.1173 7.80286C16.5289 6.6301 21.7267 4.50739 28.511 4.94809C33.7652 5.28841 37.7584 7.02428 40.0109 8.21663C38.4807 6.91656 36.2037 5.26883 33.1555 3.93693C29.7401 2.44344 26.6625 1.91705 24.5398 1.72118C27.6835 1.43717 35.9589 1.1091 44.7656 5.89805C53.2564 10.5156 57.4528 17.2853 58.9806 20.0715C59.0761 19.195 59.1006 17.9635 58.7749 16.5557C58.1653 13.9262 56.689 12.205 55.9202 11.4264C56.9411 11.9577 59.8816 13.6519 61.7105 17.3C63.5517 20.9676 63.1379 24.3585 62.9518 25.4897C63.4488 24.7772 64.154 23.5824 64.5555 21.9567C64.9913 20.1841 64.8713 18.6833 64.7318 17.797C65.2753 18.9452 66.5435 22.0253 65.8482 25.9034C65.3855 28.484 64.2494 30.3423 63.5174 31.3485C64.3719 31.2628 65.3487 31.1061 66.4138 30.8393C67.6453 30.5283 68.7079 30.1366 69.5844 29.7498C69.0041 30.7389 68.0027 32.1614 66.3868 33.4737C65.192 34.4432 64.0291 35.0529 63.1305 35.4373C63.7965 35.8241 64.5506 36.2183 65.3928 36.5929C66.1738 36.9405 66.9132 37.2196 67.5988 37.4473C66.9451 37.6946 66.1689 37.9395 65.2826 38.1231C64.1882 38.3508 63.2015 38.4291 62.3862 38.4414C62.729 39.0118 63.1648 39.881 63.4146 41.0121C63.6202 41.94 63.6349 42.7504 63.6006 43.3503C63.346 43.3087 63.0914 43.267 62.8343 43.2254C62.9567 43.6784 63.0693 44.2586 63.1036 44.9417C63.1354 45.6248 63.0791 46.2173 63.0008 46.68C64.58 46.7608 67.234 47.1721 69.0947 49.121C72.8578 53.0604 71.401 61.2158 66.7296 65.3706L66.732 65.3731Z" fill="#F6F6F6"/>
<path id="Vector_2" d="M62.3735 47.7625C61.6096 47.8824 59.5432 48.3133 57.9053 50.0859C55.0114 53.2222 56.2135 57.5852 56.2918 57.8496C55.8634 57.3428 55.4374 56.8384 55.0089 56.3316C54.8277 56.8311 54.5168 57.688 54.1349 58.7604C53.322 61.0349 53.1971 61.4266 52.8593 61.9457C52.4382 62.5945 51.6229 63.5346 49.9629 64.2667C50.952 65.0771 53.2755 66.7493 56.6273 67.1166C57.1145 67.1704 63.4483 67.758 67.3363 62.9813C70.1445 59.5316 71.523 53.4671 68.3695 50.0884C66.3986 47.9755 63.4728 47.782 62.3711 47.7649L62.3735 47.7625ZM68.6682 57.8496C68.4454 61.8477 63.6222 65.3048 59.1221 65.2167C56.2355 65.1603 54.1202 63.6595 53.2486 62.9544C57.7413 65.0477 62.42 64.918 65.0789 62.4721C66.2615 61.3826 68.1932 58.78 67.5199 56.3316C67.4318 56.0085 67.1894 55.176 66.4451 54.6154C65.1328 53.6262 62.8558 53.9323 60.7699 55.4723C61.9255 56.5716 61.8447 58.283 60.9437 59.0542C60.2777 59.6246 59.176 59.6736 58.2554 59.1374C59.1442 59.5757 60.1872 59.135 60.4883 58.3148C60.7576 57.5852 60.3879 56.6891 59.5922 56.3316C59.1882 56.4345 58.7843 56.5373 58.3778 56.6401C60.9045 53.2027 64.5501 52.1278 66.6557 53.3618C68.2153 54.275 68.7514 56.3512 68.6682 57.8496Z" fill="#F6F6F6"/>
<path id="Vector_3" d="M12.3646 35.5731C11.9239 35.2695 9.45602 33.6169 6.83874 34.4444C3.49676 35.5021 2.76716 39.7035 2.54926 40.9668C1.93717 44.4998 3.01934 49.1394 6.38335 51.098C7.36514 51.6685 8.32733 51.8889 9.03001 51.9794C8.99573 51.4457 9.00797 50.6524 9.25036 49.7368C9.51723 48.7378 9.95058 47.9984 10.2713 47.5406H8.61624C9.01287 47.3594 9.65678 46.9946 10.1881 46.2993C10.4011 46.0226 10.5504 45.7484 10.6557 45.5109C10.3888 45.6089 9.95548 45.7313 9.4144 45.7215C8.78028 45.7117 8.29061 45.5281 8.0164 45.4008C8.77293 45.129 9.65189 44.7422 10.5725 44.1741C11.0474 43.8828 11.4686 43.5816 11.8407 43.2903C11.4441 43.2976 10.9054 43.2634 10.2958 43.0944C9.8502 42.972 9.4805 42.808 9.1916 42.6562C9.6372 42.6611 10.7096 42.6096 11.7844 41.9119C12.5262 41.4295 12.9645 40.8395 13.1897 40.4771C13.3513 39.4733 13.4248 37.9382 12.749 36.3419C12.6315 36.0628 12.4993 35.8057 12.3622 35.5707L12.3646 35.5731ZM7.82298 38.1169C6.04548 38.3716 5.35505 41.4198 5.36729 43.1924C5.39178 46.7645 8.29551 49.0977 8.86842 49.5409C8.46934 49.3205 4.88007 47.2639 4.58138 43.447C4.38061 40.8909 5.64885 37.4657 7.62956 37.3359C9.05204 37.2429 10.6165 38.871 11.4759 41.1578C10.5969 39.1893 9.08142 37.9333 7.82298 38.1145V38.1169Z" fill="#F6F6F6"/>
<path id="Vector_4" d="M47.4888 32.9987C43.6572 30.6924 38.1093 30.0852 34.094 32.5849C33.0755 33.219 32.3385 33.9389 31.8391 34.5093C31.5893 34.2008 31.3078 33.8018 31.0531 33.3096C30.7202 32.6682 30.5365 32.0757 30.4337 31.6129C30.2844 32.181 30.162 32.8322 30.1032 33.5569C29.9367 35.6258 30.375 37.3396 30.7789 38.4585C29.9832 37.5551 28.8301 36.0126 28.049 33.8262C27.3978 32.0022 27.2411 30.3863 27.2215 29.2772C26.3327 28.8096 23.3972 27.4165 20.5424 28.5745C18.0378 29.5906 16.9801 32.0047 15.7584 34.7933C15.0435 36.4264 14.7472 38.0888 14.1596 41.4112C13.5304 44.9564 13.6748 46.041 14.3285 46.822C15.0361 47.6618 16.1305 47.9017 16.8822 47.9752C16.3141 48.4967 15.4425 49.4442 14.9186 50.8569C14.6933 51.4641 14.26 52.8841 14.6982 55.3251C16.0473 62.8366 21.9233 66.465 21.9233 66.465C24.9837 68.3552 28.0172 68.7126 29.7555 68.764C31.129 68.622 35.4406 67.9953 39.1155 64.4231C41.9752 61.6443 42.9888 58.5006 43.356 57.0732C44.5484 58.4884 45.6036 58.863 46.3822 58.907C49.8515 59.1078 53.3306 53.102 54.0063 48.056C54.6502 43.2425 53.1323 36.397 47.4913 33.0011L47.4888 32.9987ZM39.1106 34.4016C40.7339 33.2386 42.5922 33.4565 43.2287 33.5324C46.4336 33.9119 48.2527 36.6345 48.549 37.0899C47.0628 36.1546 45.7848 35.8192 44.9034 35.6845C43.9657 35.5401 43.3805 35.6111 41.2627 35.6429C39.828 35.6649 38.6601 35.6551 37.9109 35.6429C38.146 35.2977 38.5279 34.8203 39.1131 34.4016H39.1106ZM27.3831 48.7391C28.6244 49.2802 29.5817 47.674 31.7142 47.9336C32.7719 48.0633 33.0608 48.5212 33.1195 48.6264C33.144 48.6705 33.3252 48.9937 33.2518 49.3536C33.2224 49.4956 33.1587 49.6254 33.0681 49.7429C33.313 49.5176 33.4574 49.2434 33.4574 48.9619C33.4574 48.5873 33.2003 48.3204 33.1122 48.2298C32.314 47.4047 30.7349 47.8846 30.6027 47.9262C31.9835 47.3386 33.2567 47.4366 33.7463 48.0927C33.761 48.1147 34.116 48.602 33.9471 49.1528C33.8026 49.6229 33.3277 49.9755 32.7205 50.0661C31.8807 50.6561 30.3284 50.8814 29.8339 50.9499C29.2046 51.0405 28.3673 51.1507 27.3096 50.9156C26.6388 50.7663 25.6546 50.5484 25.0351 49.7086C24.876 49.4932 24.6973 49.1749 24.5993 48.8541C24.3912 48.531 24.3471 48.2029 24.5112 48.0364C24.5577 47.9899 24.6165 47.9629 24.6826 47.9483C24.9886 47.5859 25.6497 47.6642 25.7794 47.6814C26.6217 47.8014 26.7049 48.4404 27.3806 48.7366L27.3831 48.7391ZM21.0345 31.5493C22.5182 31.1208 24.543 31.395 25.5762 32.771C25.9753 33.3023 26.1222 33.8605 26.1834 34.218C25.7109 34.0466 25.0106 33.7944 24.1537 33.508C22.3444 32.9008 21.8915 32.82 21.7078 32.7906C21.0982 32.6902 20.1629 32.6143 18.9657 32.8322C19.4137 32.3621 20.0944 31.821 21.0345 31.5493ZM19.6365 36.9846C19.8642 36.8034 21.3724 35.6307 22.9883 36.0542C23.7546 36.255 24.3594 36.7691 24.8197 37.4449C24.8515 37.4938 24.8833 37.5428 24.9152 37.5918C25.2408 38.1108 25.4856 38.7107 25.657 39.335C25.9214 40.2996 26.012 41.3182 25.9508 42.1653C25.9165 42.6329 25.8749 43.1715 25.6839 43.7102C25.5738 44.0187 25.4146 44.3272 25.1771 44.6185C24.7854 45.1033 24.2468 45.4705 23.6322 45.7178C22.528 46.161 21.1888 46.2099 20.0528 45.8206C19.5827 45.6591 19.1493 45.4265 18.7796 45.1131C16.5076 43.1813 17.3596 38.8013 19.6341 36.9772L19.6365 36.9846ZM39.2428 56.0033C38.6087 57.1712 37.4849 58.9119 35.6022 60.5058C34.427 61.4998 29.7164 65.4882 25.2065 63.8967C21.7176 62.6652 20.0944 58.7112 19.3599 56.9214C18.8286 55.6238 18.5642 54.4731 18.4222 53.6529C18.4148 53.5329 18.361 52.9478 17.8713 52.5364C17.5946 52.3063 17.3008 52.2328 17.1466 52.2059C17.5138 51.9488 17.8811 51.6918 18.2508 51.4347C18.2385 51.6183 18.2434 51.8974 18.3414 52.2059C18.5813 52.9747 19.213 53.3958 19.4652 53.5647C21.3137 54.7963 26.1442 55.543 26.1442 55.543C30.8793 56.2751 31.8831 56.5028 33.9471 56.3705C35.0611 56.2995 35.9768 56.1551 36.5962 56.04C37.1373 55.8295 37.6759 55.6165 38.217 55.4059C38.1386 55.095 38.0603 54.7865 37.9819 54.4755C38.2439 54.6689 38.523 54.8624 38.8242 55.0558C39.4191 55.4377 39.992 55.7487 40.5258 56.0082H39.2428V56.0033ZM49.0509 45.8598C48.9627 46.3862 48.7644 46.8416 48.5171 47.2309C48.2968 47.5786 48.0373 47.8724 47.7826 48.1196C47.4423 48.4477 47.1069 48.6926 46.8743 48.8639C45.5987 49.7968 44.2423 50.0563 42.8688 50.0857C42.1515 50.1003 41.4317 50.0538 40.7143 50.0049C38.5598 49.8629 37.8497 49.312 37.5266 49.001C37.2621 48.7464 37.0663 48.4698 36.9218 48.2004C36.6721 47.7401 36.5717 47.3092 36.5203 47.0693C36.0037 44.736 37.4188 42.0796 39.4558 40.6987C39.9994 40.3315 40.9763 39.7879 42.4061 39.5945C43.1724 39.6092 45.065 39.761 46.7348 41.1394C47.124 41.4602 49.4647 43.3894 49.0509 45.8549V45.8598Z" fill="#F6F6F6"/>
<path id="Vector_5" d="M24.6809 47.9515C24.9331 47.8976 25.3101 48.0543 25.6235 48.3677C26.0226 48.7668 26.1695 49.2663 25.9516 49.4817C25.7337 49.6996 25.2342 49.5527 24.8376 49.1536C24.7421 49.0581 24.6613 48.9578 24.5977 48.8549C24.6956 49.1757 24.8743 49.4939 25.0335 49.7094C25.6529 50.5492 26.6371 50.7671 27.308 50.9164C28.3632 51.1515 29.2005 51.0413 29.8322 50.9507C30.3243 50.8797 31.879 50.6569 32.7188 50.0669C32.6478 50.0767 32.5768 50.0864 32.5033 50.0889C32.7237 50.0008 32.9147 49.8832 33.0665 49.7437C33.157 49.6262 33.2232 49.4964 33.2501 49.3544C33.3235 48.9945 33.1424 48.6713 33.1179 48.6272C33.0567 48.522 32.7678 48.0641 31.7125 47.9344C29.58 47.6748 28.6203 49.2809 27.3814 48.7399C26.7032 48.4436 26.6224 47.8046 25.7802 47.6846C25.6504 47.665 24.9918 47.5891 24.6833 47.9515H24.6809ZM31.12 49.1904C31.6734 49.0777 32.1704 49.232 32.2316 49.5331C32.2928 49.8343 31.8937 50.1697 31.3428 50.2823C30.7895 50.3949 30.2925 50.2407 30.2313 49.9395C30.1701 49.6384 30.5692 49.303 31.12 49.1904Z" fill="#F6F6F6"/>
<path id="Vector_6" d="M26.4261 55.8666C24.7906 55.5826 23.7917 55.3525 23.2408 55.2178C22.0558 54.9289 21.0226 54.6253 20.1657 54.3486C20.1142 54.5984 20.0751 55.0121 20.2611 55.4235C20.4888 55.9205 20.9418 56.1775 21.2821 56.3342C23.3705 57.2989 28.8303 58.0456 29.2368 58.1019C29.5452 58.1436 32.0842 58.4961 34.3244 58.195C34.863 58.124 35.6514 57.9771 36.1313 57.3405C36.4275 56.9488 36.4985 56.5081 36.5181 56.2241C36.1117 56.3171 35.4996 56.442 34.7504 56.5374C32.209 56.8582 30.2259 56.5252 26.4261 55.8666Z" fill="#F6F6F6"/>
<path id="Vector_7" d="M27.2975 61.3616C27.562 61.0261 27.9341 60.6173 28.436 60.2206C28.8718 59.8754 29.2905 59.633 29.6406 59.4592C29.2611 59.3196 26.6732 58.4236 24.3742 59.873C23.4389 60.463 22.8856 61.2294 22.582 61.7484C24.0633 63.1048 25.5005 63.4843 26.1933 63.614C28.4213 64.0254 30.2821 63.188 31.7633 62.5196C33.0242 61.9516 33.9766 61.2955 34.6034 60.8107C34.0182 60.5463 33.225 60.2745 32.2603 60.1766C29.8707 59.9317 28.0222 60.9184 27.2975 61.3616Z" fill="#F6F6F6"/>
<path id="Vector_8" d="M32.7174 50.0697C33.3271 49.9792 33.7996 49.6241 33.944 49.1565C34.113 48.6056 33.7604 48.1184 33.7433 48.0964C33.2536 47.4402 31.9805 47.3447 30.5996 47.9299C30.7318 47.8883 32.311 47.4084 33.1092 48.2335C33.1973 48.3241 33.4544 48.5909 33.4544 48.9655C33.4544 49.2471 33.3124 49.5213 33.0651 49.7466C32.9745 49.8641 32.8545 49.9718 32.7174 50.0697Z" fill="#F6F6F6"/>
<path id="Vector_9" d="M32.7155 50.0678C32.855 49.9699 32.9725 49.8621 33.0631 49.7446C32.9113 49.8842 32.7204 50.0017 32.5 50.0898C32.5735 50.0874 32.6445 50.0776 32.7155 50.0678Z" fill="#F6F6F6"/>
<path id="Vector_10" d="M24.9135 37.591C24.8816 37.5421 24.8498 37.4931 24.818 37.4441C24.5805 37.3903 24.3357 37.3536 24.0859 37.3413C24.3724 37.4001 24.6491 37.4858 24.9135 37.591Z" fill="#F6F6F6"/>
<path id="Vector_11" d="M23.8683 37.3359C21.5498 37.3359 19.6719 39.2138 19.6719 41.5324C19.6719 43.851 21.4249 45.5991 23.6333 45.7215C24.2478 45.4742 24.7865 45.1045 25.1782 44.6222C25.4157 44.3284 25.5748 44.0223 25.685 43.7139C25.3177 43.9244 24.8893 44.0468 24.4363 44.0468C23.0481 44.0468 21.9219 42.9206 21.9219 41.5324C21.9219 40.4429 22.6148 39.515 23.5868 39.1673C23.79 38.9078 24.1058 38.7388 24.4633 38.7388C24.8207 38.7388 25.1586 38.92 25.3618 39.1967C25.4646 39.2383 25.565 39.2848 25.6605 39.3387C25.4891 38.7144 25.2443 38.1121 24.9187 37.5955C24.6542 37.4877 24.3776 37.4045 24.0911 37.3457C24.0177 37.3408 23.9467 37.3408 23.8732 37.3408L23.8683 37.3359Z" fill="#F6F6F6"/>
<path id="Vector_12" d="M25.361 39.1966C25.1578 38.9199 24.8321 38.7388 24.4624 38.7388C24.0927 38.7388 23.7891 38.9077 23.5859 39.1672C23.8504 39.0717 24.1368 39.0203 24.4355 39.0203C24.7611 39.0203 25.0745 39.084 25.361 39.1966Z" fill="#F6F6F6"/>
<path id="Vector_13" d="M24.4597 40.9665C25.0742 40.9665 25.5737 40.467 25.5737 39.8525C25.5737 39.6076 25.4929 39.3799 25.3582 39.1963C25.0718 39.0837 24.7608 39.02 24.4328 39.02C24.1341 39.02 23.8476 39.0714 23.5832 39.1669C23.4363 39.3554 23.3457 39.5929 23.3457 39.8525C23.3457 40.467 23.8452 40.9665 24.4597 40.9665Z" fill="#F6F6F6"/>
<path id="Vector_14" d="M48.5183 46.0706C48.5354 45.9066 48.5452 45.7401 48.5452 45.5712C48.5452 43.14 46.6747 41.147 44.2949 40.9536C46.5792 41.622 48.2906 43.6321 48.5183 46.0706Z" fill="#F6F6F6"/>
<path id="Vector_15" d="M44.2906 40.9512C44.1633 40.9414 44.036 40.9341 43.9062 40.9341C41.3452 40.9341 39.2715 43.0103 39.2715 45.5688C39.2715 47.7698 40.8066 49.611 42.8632 50.086C44.2343 50.0566 45.5931 49.7971 46.8687 48.8643C47.1013 48.6929 47.4367 48.448 47.777 48.12C48.1736 47.5201 48.4356 46.8199 48.5164 46.0682C48.2863 43.6273 46.5773 41.6196 44.293 40.9512H44.2906ZM44.2563 47.7625C42.7408 47.7625 41.5117 46.5334 41.5117 45.0179C41.5117 43.7668 42.349 42.714 43.4924 42.3835C43.6907 42.195 43.9601 42.0775 44.2563 42.0775C44.5526 42.0775 44.8219 42.195 45.0202 42.3835C46.1636 42.714 47.0009 43.7693 47.0009 45.0179C47.0009 46.5334 45.7718 47.7625 44.2563 47.7625Z" fill="#F6F6F6"/>
<path id="Vector_16" d="M45.0258 42.3825C44.8275 42.1939 44.5582 42.0764 44.2619 42.0764C43.9657 42.0764 43.6964 42.1939 43.498 42.3825C43.7404 42.3115 43.9975 42.2747 44.2619 42.2747C44.5264 42.2747 44.7834 42.3139 45.0258 42.3825Z" fill="#F6F6F6"/>
<path id="Vector_17" d="M44.2585 44.3065C44.8731 44.3065 45.3725 43.8071 45.3725 43.1925C45.3725 42.8743 45.2379 42.5878 45.0224 42.3846C44.78 42.3136 44.5229 42.2769 44.2585 42.2769C43.9941 42.2769 43.737 42.316 43.4946 42.3846C43.2792 42.5878 43.1445 42.8743 43.1445 43.1925C43.1445 43.8071 43.644 44.3065 44.2585 44.3065Z" fill="#F6F6F6"/>
</g>
</svg>
