<svg width="480" height="67" viewBox="0 0 480 67" fill="none" xmlns="http://www.w3.org/2000/svg">
<g id="movefit_logo_verde">
<g id="Group">
<g id="Group_2">
<path id="Vector" d="M65.1253 45.8566C63.3301 43.977 60.7688 43.5815 59.2463 43.5027C59.3211 43.0573 59.3768 42.4871 59.3461 41.8266C59.3154 41.168 59.204 40.6074 59.0869 40.1716C59.3327 40.2119 59.5784 40.2522 59.8242 40.2906C59.8568 39.7146 59.8434 38.9332 59.6437 38.0365C59.4037 36.946 58.9851 36.1069 58.653 35.5559C59.4402 35.5444 60.3887 35.4695 61.4466 35.2506C62.3029 35.0721 63.0517 34.8378 63.6814 34.5997C63.021 34.3809 62.3067 34.1101 61.5541 33.7761C60.7419 33.4132 60.0123 33.033 59.3711 32.6606C60.2389 32.29 61.3602 31.7006 62.5122 30.7655C64.0712 29.5003 65.037 28.1275 65.5976 27.1732C64.7509 27.5457 63.7256 27.9239 62.539 28.2235C61.5138 28.4827 60.5691 28.6324 59.7455 28.715C60.4501 27.7435 61.5483 25.9521 61.9938 23.4619C62.6638 19.7198 61.4408 16.7515 60.9167 15.6418C61.0511 16.4962 61.1682 17.9438 60.7477 19.6546C60.3618 21.2251 59.6821 22.3771 59.2021 23.0625C59.3826 21.9701 59.78 18.7003 58.006 15.1637C56.2396 11.6444 53.4037 10.0104 52.4207 9.49781C53.1618 10.2485 54.5865 11.9093 55.174 14.4456C55.4888 15.805 55.4639 16.9896 55.3737 17.8363C53.8991 15.1483 49.8518 8.61845 41.663 4.16408C33.1632 -0.453494 25.1818 -0.138617 22.1482 0.135942C24.1949 0.324101 27.1632 0.830978 30.4579 2.27289C33.3975 3.55736 35.592 5.14711 37.0685 6.40087C34.897 5.25079 31.0455 3.57848 25.9767 3.24824C19.4315 2.82393 14.4184 4.86871 12.0933 6.00151C13.9672 5.69239 16.5726 5.51575 19.5543 6.12055C20.6506 6.34327 21.6375 6.63895 22.5073 6.95766C20.7332 7.12662 13.5448 8.01366 8.41647 14.0923C5.86481 17.1182 4.79345 20.2766 4.31346 22.2389C4.88561 21.1963 5.95313 19.5585 7.7848 18.0494C9.60495 16.5518 11.404 15.8184 12.5329 15.4555C11.667 16.1141 9.56079 17.9035 8.50287 21.0408C7.16656 25.0036 8.42799 28.3867 8.79471 29.2852C9.05199 25.7966 10.9413 22.9819 13.5467 22.1909C14.7928 21.8126 15.9697 21.9701 16.8279 22.2101C15.8833 22.8571 14.7102 23.8132 13.6024 25.1822C11.6229 27.6283 10.8587 30.1396 10.5361 31.6065C10.1483 31.378 7.28944 29.746 4.41138 30.9806C2.11891 31.9655 1.26259 34.1485 0.794116 35.3428C-0.972274 39.8452 0.220039 46.2426 4.25202 48.4813C5.35409 49.0937 6.4408 49.2685 7.18384 49.3184C7.30864 50.0749 7.61968 51.2422 8.47983 52.35C8.72367 52.663 8.97519 52.926 9.21711 53.1488C9.68943 53.9225 10.419 55.0783 11.379 56.4339C13.0187 58.7532 15.2689 61.5814 16.6455 62.8697C23.8954 69.6626 39.5779 64.3788 40.3977 64.0927C43.0454 63.1692 45.1017 62.0786 46.4361 61.2934C47.3539 62.1209 49.1682 63.5282 51.8197 64.1733C55.5849 65.0872 59.8607 64.1753 62.8405 61.5276C67.3467 57.5206 68.7502 49.6544 65.1214 45.8547L65.1253 45.8566ZM11.2043 37.5181C10.9854 37.8676 10.5649 38.4359 9.84686 38.9005C8.81007 39.5725 7.77712 39.6224 7.34704 39.6186C7.62544 39.7645 7.98064 39.922 8.41071 40.041C8.99823 40.2023 9.51663 40.2349 9.90062 40.2292C9.54159 40.5114 9.13455 40.8013 8.67759 41.0816C7.78864 41.6288 6.94192 42.0032 6.21233 42.2643C6.47728 42.3872 6.9496 42.5639 7.56016 42.5735C8.08239 42.5811 8.49903 42.464 8.75631 42.3699C8.65263 42.5984 8.50863 42.8615 8.30511 43.1283C7.79248 43.7984 7.17232 44.1517 6.78832 44.3264H8.38383C8.07664 44.768 7.65616 45.4822 7.39888 46.4442C7.16464 47.3274 7.15312 48.0915 7.18576 48.6061C6.50608 48.5177 5.57873 48.3065 4.63217 47.7555C1.38931 45.8662 0.344839 41.3927 0.934275 37.9828C1.14547 36.7655 1.84819 32.7124 5.07185 31.691C7.59664 30.8922 9.97742 32.4858 10.4017 32.7796C10.5342 33.0062 10.6609 33.2558 10.7742 33.5246C11.4251 35.0644 11.3541 36.5466 11.2005 37.5143L11.2043 37.5181ZM43.2086 55.2915C42.4579 55.2473 41.4384 54.8883 40.2902 53.5232C39.9369 54.8979 38.9577 57.9315 36.2006 60.6118C32.6563 64.0562 28.4976 64.661 27.1728 64.7993C25.4948 64.7493 22.5687 64.4037 19.6177 62.5817C19.6177 62.5817 13.9499 59.0796 12.6481 51.8355C12.2257 49.4835 12.6443 48.1107 12.8612 47.527C13.3681 46.1638 14.2091 45.2518 14.7563 44.7469C14.0305 44.6758 12.9745 44.4454 12.2929 43.6352C11.6613 42.8826 11.523 41.8362 12.1297 38.4167C12.698 35.2122 12.9822 33.609 13.6715 32.0327C14.8504 29.3447 15.8699 27.0139 18.2871 26.0347C21.0423 24.9172 23.8724 26.2632 24.7306 26.7124C24.7498 27.7838 24.9015 29.3409 25.5293 31.1015C26.282 33.2116 27.3956 34.6977 28.1616 35.5693C27.7719 34.4903 27.3476 32.8372 27.5108 30.8423C27.5664 30.1434 27.6874 29.5156 27.8295 28.9665C27.9312 29.4119 28.1079 29.9841 28.4285 30.6023C28.6743 31.0766 28.945 31.4606 29.1869 31.7601C29.6669 31.211 30.3773 30.5178 31.3623 29.9054C35.2349 27.4958 40.5859 28.0795 44.2819 30.3047C49.7212 33.5802 51.1881 40.185 50.566 44.8275C49.9151 49.6947 46.5571 55.4873 43.2124 55.2934L43.2086 55.2915ZM53.1004 63.2114C49.8671 62.8581 47.6284 61.2454 46.6723 60.462C48.2735 59.7574 49.0588 58.8492 49.4658 58.2233C49.7903 57.7222 49.9113 57.3439 50.6966 55.1513C51.0671 54.1164 51.3666 53.2889 51.5413 52.8089C51.9541 53.2966 52.365 53.7843 52.7778 54.272C52.7029 54.0166 51.5433 49.8099 54.333 46.784C55.9112 45.0733 57.9042 44.6586 58.6415 44.5434C59.7032 44.5587 62.5275 44.7469 64.4264 46.784C67.4677 50.0461 66.1371 55.8924 63.4299 59.2217C59.6802 63.8297 53.5708 63.2633 53.1004 63.2114Z" fill="#002E00"/>
<path id="Vector_2" d="M35.1063 51.0153C35.1812 51.3148 35.2561 51.6144 35.3329 51.9139C34.8125 52.1174 34.2903 52.3209 33.77 52.5263C33.1729 52.6377 32.2897 52.7759 31.2145 52.8451C29.2254 52.9718 28.2577 52.7548 23.6881 52.0464C23.6881 52.0464 19.0283 51.3244 17.2446 50.1379C17.0008 49.9766 16.3922 49.5696 16.1598 48.8285C16.0658 48.5289 16.0619 48.2621 16.0734 48.0835C15.7182 48.3312 15.365 48.5808 15.0098 48.8285C15.1576 48.8534 15.4418 48.9244 15.7086 49.1472C16.1829 49.5427 16.2328 50.1091 16.2405 50.2243C16.3768 51.0134 16.6322 52.1232 17.1448 53.3769C17.8533 55.1049 19.4181 58.9199 22.7838 60.1065C27.1345 61.6405 31.6791 57.7948 32.8119 56.8348C34.6282 55.2969 35.713 53.6188 36.3236 52.4918H37.56C37.0436 52.2441 36.4906 51.9427 35.9184 51.574C35.6305 51.3878 35.3597 51.2016 35.1063 51.0153ZM29.1159 58.7759C27.6855 59.421 25.8923 60.2274 23.7438 59.83C23.0737 59.7052 21.6875 59.3385 20.259 58.031C20.5528 57.5298 21.0865 56.7906 21.987 56.2223C24.2065 54.8246 26.7006 55.6905 27.0673 55.823C26.7294 55.99 26.3262 56.2262 25.9057 56.5583C25.4219 56.9404 25.0628 57.334 24.8075 57.6585C25.5083 57.2303 27.29 56.2799 29.5959 56.5142C30.5252 56.6082 31.2932 56.8713 31.8577 57.1266C31.2529 57.5951 30.3351 58.2268 29.1178 58.7759H29.1159ZM33.3245 53.782C32.8618 54.3964 32.1015 54.5366 31.5831 54.6057C29.4231 54.8956 26.9732 54.5558 26.6756 54.5155C26.282 54.4617 21.0174 53.7417 19.0014 52.8105C18.675 52.6588 18.2373 52.4131 18.0165 51.9331C17.836 51.5376 17.8744 51.1382 17.9243 50.8963C18.7499 51.1632 19.7464 51.4569 20.8907 51.7334C21.4225 51.862 22.3844 52.0848 23.9627 52.3593C27.6279 52.9929 29.5422 53.3155 31.9921 53.0063C32.7159 52.9142 33.3053 52.7952 33.697 52.7049C33.6797 52.9795 33.6106 53.4038 33.3245 53.782Z" fill="#002E00"/>
<path id="Vector_3" d="M19.4124 30.1014C19.589 30.1302 20.0249 30.2089 21.772 30.7926C22.5996 31.0691 23.2735 31.311 23.7304 31.478C23.6709 31.1324 23.5288 30.5948 23.1448 30.0822C22.1484 28.7555 20.1957 28.4905 18.7634 28.9052C17.8572 29.1663 17.2006 29.6905 16.7686 30.1417C17.9225 29.9324 18.8268 30.0054 19.4143 30.1014H19.4124Z" fill="#002E00"/>
<path id="Vector_4" d="M38.2733 32.8547C40.3162 32.824 40.8787 32.7568 41.785 32.895C42.6355 33.0256 43.8681 33.35 45.3024 34.2524C45.0182 33.8128 43.2634 31.1862 40.1722 30.8214C39.5578 30.7485 37.7645 30.5373 36.1997 31.6585C35.6372 32.0636 35.2666 32.5225 35.04 32.8547C35.7639 32.8662 36.889 32.8758 38.2733 32.8547Z" fill="#002E00"/>
<path id="Vector_5" d="M62.773 49.9464C60.7416 48.756 57.2261 49.7928 54.7896 53.1086L55.9608 52.811C56.7288 53.1566 57.084 54.0206 56.8248 54.7233C56.5349 55.5144 55.5269 55.9387 54.6706 55.5163C55.5596 56.0347 56.6213 55.9867 57.2645 55.4376C58.1343 54.6926 58.213 53.0414 57.0975 51.9816C59.1077 50.4936 61.3042 50.1998 62.5714 51.1541C63.2894 51.6955 63.5237 52.5 63.6082 52.811C64.259 55.1745 62.3966 57.684 61.2542 58.7342C58.6891 61.0939 54.1772 61.2187 49.8438 59.1988C50.6847 59.8766 52.7257 61.3262 55.5096 61.3799C59.8507 61.4644 64.5029 58.1275 64.716 54.2721C64.7966 52.8283 64.2801 50.8258 62.7749 49.9445L62.773 49.9464Z" fill="#002E00"/>
<path id="Vector_6" d="M5.83525 34.4866C3.92678 34.6114 2.70375 37.9177 2.89575 40.381C3.18375 44.0635 6.64741 46.0469 7.03141 46.26C6.47845 45.8319 3.67718 43.5816 3.65414 40.1352C3.64262 38.4245 4.30694 35.485 6.02341 35.2393C7.23684 35.0646 8.69796 36.2761 9.54659 38.1749C8.71715 35.9689 7.20996 34.3983 5.83525 34.4886V34.4866Z" fill="#002E00"/>
<path id="Vector_7" d="M22.2651 44.7472C22.2651 44.7472 22.2785 44.7318 22.2862 44.7241C22.2209 44.7376 22.1653 44.7664 22.1211 44.8105C21.9617 44.9699 22.0059 45.2867 22.2056 45.5996C22.1115 45.2867 22.0981 44.9718 22.267 44.7491L22.2651 44.7472Z" fill="#002E00"/>
<path id="Vector_8" d="M23.509 46.2025C23.7183 45.9932 23.5762 45.5113 23.1922 45.1273C22.8889 44.8239 22.526 44.6722 22.2822 44.726C22.2764 44.7337 22.2687 44.7414 22.261 44.749C22.0921 44.9718 22.1055 45.2886 22.1996 45.5996C22.263 45.6975 22.3398 45.7954 22.4319 45.8857C22.8159 46.2697 23.2978 46.4118 23.5071 46.2025H23.509Z" fill="#002E00"/>
<path id="Vector_9" d="M28.7073 46.972C29.2391 46.8645 29.625 46.542 29.5655 46.2501C29.506 45.9583 29.0279 45.8104 28.4942 45.9199C27.9623 46.0274 27.5764 46.35 27.6359 46.6418C27.6955 46.9317 28.1735 47.0815 28.7073 46.972Z" fill="#002E00"/>
<path id="Vector_10" d="M30.0351 46.7669C30.6226 46.6785 31.0795 46.3387 31.2178 45.8856C31.381 45.3538 31.0392 44.8834 31.0238 44.8622C30.5496 44.2286 29.3227 44.1365 27.9922 44.7029C28.1208 44.6626 29.6434 44.1998 30.4133 44.9947C30.4978 45.083 30.7455 45.3384 30.7455 45.7013C30.7455 45.972 30.6072 46.2389 30.3711 46.4539C30.2827 46.5672 30.1675 46.6709 30.0351 46.7649V46.7669Z" fill="#002E00"/>
<path id="Vector_11" d="M30.0345 46.7666C30.1689 46.6725 30.2822 46.5688 30.3705 46.4556C30.2246 46.59 30.0403 46.7032 29.8271 46.7877C29.8982 46.7839 29.9673 46.7762 30.0345 46.7666Z" fill="#002E00"/>
<path id="Vector_12" d="M16.5882 41.9936C16.9434 42.295 17.3619 42.5216 17.8151 42.6752C16.7687 41.8189 16.0986 40.519 16.0986 39.0617C16.0986 36.4851 18.1875 34.3981 20.7622 34.3981C21.0848 34.3981 21.3997 34.4307 21.705 34.4941C21.9469 34.5056 22.183 34.5421 22.4115 34.5939C21.968 33.9431 21.3862 33.4477 20.6451 33.2519C19.0861 32.841 17.6307 33.9719 17.4119 34.1485C15.2192 35.9072 14.3956 40.1331 16.5882 41.9955V41.9936Z" fill="#002E00"/>
<path id="Vector_13" d="M17.4513 38.5341C17.4513 36.2992 19.2638 34.4867 21.4987 34.4867C21.5697 34.4867 21.6388 34.4867 21.7099 34.4925C21.4065 34.431 21.0897 34.3965 20.7672 34.3965C18.1905 34.3965 16.1035 36.4854 16.1035 39.0601C16.1035 40.5174 16.7717 41.8192 17.82 42.6736C18.9163 43.048 20.2085 43.0019 21.274 42.5737C19.1448 42.4566 17.4533 40.6921 17.4533 38.5321L17.4513 38.5341Z" fill="#002E00"/>
<path id="Vector_14" d="M23.1443 36.9134C23.1443 37.5067 22.6643 37.9867 22.071 37.9867C21.4777 37.9867 20.9977 37.5067 20.9977 36.9134C20.9977 36.6638 21.0841 36.4353 21.2262 36.2529C20.2912 36.5889 19.6211 37.4836 19.6211 38.5358C19.6211 39.874 20.7059 40.9607 22.046 40.9607C22.4857 40.9607 22.8966 40.8436 23.2518 40.6401C23.4361 40.1217 23.4764 39.5995 23.5091 39.1502C23.5686 38.3323 23.4822 37.3492 23.2268 36.42C23.1347 36.3681 23.0387 36.324 22.9388 36.2836C23.0694 36.4622 23.1462 36.6792 23.1462 36.9172L23.1443 36.9134Z" fill="#002E00"/>
<path id="Vector_15" d="M43.5517 38.1593C41.9389 36.8307 40.1149 36.6848 39.3757 36.6694C37.9952 36.8557 37.0544 37.3779 36.5303 37.7331C34.5661 39.0656 33.201 41.6268 33.7002 43.8771C33.752 44.1075 33.848 44.5241 34.088 44.9676C33.9556 44.4838 33.8826 43.975 33.8826 43.4508C33.8826 40.2982 36.4381 37.7427 39.5907 37.7427C40.1494 37.7427 40.689 37.8253 41.1997 37.9731C43.496 38.1613 45.3008 40.0832 45.3008 42.4275C45.3008 42.5907 45.2912 42.75 45.2739 42.9094C45.2912 43.088 45.3008 43.2684 45.3008 43.4508C45.3008 43.6467 45.2912 43.8406 45.272 44.0307C45.51 43.6544 45.702 43.2147 45.7865 42.7078C46.1859 40.3309 43.928 38.4685 43.5517 38.1593Z" fill="#002E00"/>
<path id="Vector_16" d="M36.3577 42.4294C36.3577 39.9603 38.3602 37.9577 40.8293 37.9577C40.9541 37.9577 41.077 37.9635 41.1999 37.975C40.6892 37.8253 40.1497 37.7446 39.5909 37.7446C36.4383 37.7446 33.8828 40.3001 33.8828 43.4528C33.8828 43.9788 33.9558 44.4876 34.0883 44.9695C34.2284 45.2268 34.4147 45.4956 34.67 45.7414C34.981 46.039 35.6665 46.5708 37.7439 46.7091C38.4351 46.7551 39.1301 46.8012 39.8213 46.7859C37.8361 46.3289 36.3558 44.5529 36.3558 42.4294H36.3577Z" fill="#002E00"/>
<path id="Vector_17" d="M45.2699 42.9111C45.1912 43.6369 44.9397 44.3108 44.5576 44.8906C44.8053 44.6506 45.0549 44.3665 45.2661 44.0324C45.2853 43.8423 45.2949 43.6484 45.2949 43.4526C45.2949 43.2702 45.2853 43.0897 45.268 42.9111H45.2699Z" fill="#002E00"/>
<path id="Vector_18" d="M41.9035 39.3555C42.1109 39.5513 42.2395 39.8278 42.2395 40.135C42.2395 40.7283 41.7595 41.2083 41.1663 41.2083C40.573 41.2083 40.093 40.7283 40.093 40.135C40.093 39.8278 40.2235 39.5513 40.429 39.3555C39.3269 39.6742 38.5205 40.6918 38.5205 41.8975C38.5205 43.3586 39.7051 44.5433 41.1663 44.5433C42.6274 44.5433 43.812 43.3586 43.812 41.8975C43.812 40.6918 43.0056 39.6761 41.9035 39.3555Z" fill="#002E00"/>
</g>
<path id="Vector_19" d="M99.3419 24.5774C98.1323 22.6689 95.8936 21.8146 93.7182 22.4385C91.5333 23.0645 90.0817 24.9902 90.0817 27.2635V53.214H80.7852V27.2635C80.7852 20.845 84.9842 15.2712 91.155 13.5029C91.5198 13.3973 91.8865 13.309 92.2533 13.2322C98.0651 12.0437 104.009 14.5455 107.216 19.6334L107.243 19.6776L117.157 35.5444L121.128 41.8976C121.128 41.8976 121.138 41.913 121.143 41.9207C122.019 43.3069 123.43 44.0826 125.07 44.0826C126.709 44.0826 128.121 43.3069 128.996 41.9226C129 41.913 129.006 41.9053 129.01 41.8976L132.98 35.5444L142.895 19.6776L142.922 19.6334C146.126 14.5455 152.071 12.0437 157.884 13.2322C158.251 13.3071 158.618 13.3973 158.982 13.5029C165.153 15.2712 169.352 20.845 169.352 27.2635V53.214H160.056V27.2635C160.056 24.9902 158.604 23.0645 156.419 22.4385C154.244 21.8146 152.003 22.6689 150.796 24.5774C150.79 24.587 150.784 24.5947 150.778 24.6043L143.943 35.5444L136.895 46.8243C136.895 46.8243 136.885 46.8378 136.881 46.8454C136.878 46.8512 136.876 46.855 136.872 46.8608C134.846 50.0806 131.703 52.2656 128.099 53.0528C127.118 53.2659 126.105 53.3772 125.07 53.3772C124.035 53.3772 123.021 53.2659 122.04 53.0528C118.436 52.2656 115.293 50.0787 113.268 46.8608L113.244 46.8243L106.198 35.5444L99.361 24.6043C99.361 24.6043 99.3495 24.587 99.3438 24.5774H99.3419ZM248.752 33.1617C248.752 44.2823 239.653 53.383 228.53 53.383H196.683C185.561 53.383 176.462 44.2842 176.462 33.1617C176.462 22.0392 185.561 12.9404 196.683 12.9404H228.53C239.653 12.9404 248.752 22.0392 248.752 33.1617ZM239.455 33.1617C239.455 27.1713 234.521 22.2369 228.53 22.2369H196.683C190.693 22.2369 185.759 27.1713 185.759 33.1617C185.759 39.1521 190.693 44.0864 196.683 44.0864H228.53C234.521 44.0864 239.455 39.1521 239.455 33.1617ZM281.397 36.2202C284.594 41.337 289.555 44.0864 295.588 44.0864C301.62 44.0864 306.582 41.337 309.778 36.2202L324.326 12.9423H335.287L317.662 41.1469C312.766 48.9824 304.827 53.383 295.588 53.383C286.349 53.383 278.41 48.9824 273.514 41.1469L255.888 12.9423H266.849L281.397 36.2202ZM358.897 22.235C354.967 22.235 351.751 25.451 351.751 29.3812V36.9364C351.751 40.8666 354.967 44.0826 358.897 44.0826H408.066V53.3792H358.897C352.394 53.3792 346.757 49.5776 344.092 44.0826C343.163 42.1664 342.595 40.0448 342.478 37.8061H342.455V28.5096H342.478C342.595 26.2708 343.163 24.1493 344.092 22.2331C346.757 16.7381 352.396 12.9365 358.897 12.9365H408.066V22.2331H358.897V22.235ZM358.028 37.8081H408.068V28.5115H358.028V37.8081ZM474.293 12.9384H427.255C424.102 12.9384 421.547 15.4939 421.547 18.6466V47.673C421.547 50.8256 424.102 53.3811 427.255 53.3811H474.293C477.445 53.3811 480.001 50.8256 480.001 47.673V18.6466C480.001 15.4939 477.445 12.9384 474.293 12.9384ZM443.742 29.7921H436.549V48.4851H433.433V29.7921H429.219V27.1809H433.433V24.7061C433.433 23.1797 433.677 21.8741 434.167 20.7893C434.654 19.7064 435.396 18.8578 436.388 18.2472C437.381 17.6367 438.625 17.3314 440.123 17.3314C440.916 17.3314 441.611 17.3698 442.208 17.4466C442.803 17.5234 443.3 17.6079 443.696 17.6981V20.173C443.147 20.0808 442.626 20.0117 442.139 19.9675C441.649 19.9214 441.131 19.8984 440.581 19.8984C439.145 19.8984 438.114 20.3189 437.488 21.1579C436.862 21.9989 436.549 23.2123 436.549 24.8001V27.1828H443.742V29.794V29.7921ZM452.034 48.4851H448.874V27.1809H452.034V48.4851ZM452.401 21.8203H448.553V18.4296H452.401V21.8203ZM470.956 48.6694C470.497 48.7904 470.025 48.8749 469.535 48.921C469.045 48.967 468.512 48.9901 467.932 48.9901C466.496 48.9901 465.321 48.7002 464.405 48.1203C463.489 47.5405 462.817 46.7456 462.389 45.7376C461.961 44.7296 461.747 43.5834 461.747 42.3008V29.7921H458.174V27.1809H461.747V20.9966H464.864V27.1809H472.102V29.7921H464.864V42.1165C464.864 43.4298 465.146 44.4301 465.712 45.1175C466.277 45.8048 467.185 46.1485 468.439 46.1485C469.08 46.1485 469.652 46.1101 470.157 46.0333C470.66 45.9584 471.234 45.8125 471.875 45.5975L472.334 48.3008C471.875 48.4237 471.418 48.5446 470.96 48.6675L470.956 48.6694Z" fill="#002E00"/>
</g>
</g>
</svg>
