<?xml version="1.0" encoding="UTF-8"?>
<svg width="24" height="24" viewBox="0 0 24 24" fill="none" xmlns="http://www.w3.org/2000/svg">
  <path d="M12 2C6.48 2 2 6.48 2 12C2 17.52 6.48 22 12 22C17.52 22 22 17.52 22 12C22 6.48 17.52 2 12 2ZM16.64 8.8C16.49 10.38 15.84 14.22 15.51 15.99C15.37 16.74 15.09 16.99 14.83 17.02C14.25 17.07 13.81 16.64 13.25 16.27C12.37 15.69 11.87 15.33 11.02 14.77C10.03 14.12 10.67 13.76 11.24 13.18C11.39 13.03 13.95 10.7 14 10.49C14.0069 10.4582 14.006 10.4252 13.9973 10.3938C13.9886 10.3624 13.9724 10.3337 13.95 10.31C13.89 10.26 13.81 10.27 13.74 10.28C13.65 10.29 11.66 11.38 8.73 13.38C8.22 13.66 7.76 13.8 7.34 13.79C6.88 13.78 6 13.6 5.31 13.45C4.48 13.27 3.78 13.17 3.83 12.75C3.86 12.5 4.15 12.24 4.75 11.98C8.11 10.38 10.2 9.3 11.12 8.74C14.36 6.88 15.07 6.6 15.55 6.6C15.66 6.6 15.9 6.63 16.05 6.75C16.17 6.85 16.2 6.98 16.21 7.08C16.2 7.17 16.21 7.4 16.64 8.8Z" fill="#FFFFFF"/>
</svg> 